<?xml version="1.0" encoding="UTF-8"?><svg id="Layer_1" xmlns="http://www.w3.org/2000/svg" viewBox="0 0 590.89 67.36"><defs><style>.cls-1{fill:#29303d;}</style></defs><path class="cls-1" d="m26.81,33.55c.18-.28.33-.56.48-.82.14-.27.3-.54.48-.82.64-1.13,1.39-2.51,2.25-4.13.87-1.62,1.81-3.34,2.84-5.14.99-1.8,2.04-3.64,3.15-5.51,1.11-1.87,2.23-3.64,3.37-5.3,1.13-1.66,2.26-3.14,3.39-4.43,1.13-1.29,2.21-2.29,3.23-2.99h-.11c-2.19.39-4.43.68-6.71.87-2.28.19-4.47.53-6.57,1.01s-4.03,1.18-5.78,2.12c-1.75.94-3.21,2.32-4.37,4.16-.14.25-.27.49-.4.72-.12.23-.24.41-.34.53-.11.12-.2.17-.29.13-.09-.03-.19-.21-.29-.53-.74-2.05-.88-3.82-.4-5.3.48-1.48,1.33-2.72,2.57-3.71.39-.32.79-.6,1.22-.85.42-.25.88-.48,1.38-.69,1.7-.67,3.65-1.16,5.86-1.46,2.21-.3,4.46-.51,6.76-.64,2.3-.12,4.56-.2,6.78-.24,2.23-.03,4.22-.14,5.99-.32.32-.03.62-.07.9-.11.28-.03.56-.05.85-.05.14-.03.39-.05.74-.05s.62.02.79.05c.56.04,1.11.16,1.64.37.53.21,1.08.58,1.64,1.11.39.32.39.51,0,.58-1.27.32-2.58,1.08-3.92,2.28-1.13.95-2.26,2.12-3.39,3.5s-2.25,2.87-3.37,4.48c-1.11,1.61-2.21,3.29-3.29,5.06-1.08,1.77-2.09,3.5-3.05,5.19-1.24,2.16-2.35,4.19-3.34,6.1-.99,1.91-1.84,3.52-2.54,4.82h-.05c-1.77,3.29-3.51,6.21-5.22,8.77-1.71,2.56-3.42,4.83-5.11,6.81-3.25,3.89-6.28,6.67-9.09,8.35-2.81,1.68-5.17,2.52-7.08,2.52-1.55,0-2.88-.27-3.97-.82-1.1-.55-1.99-1.31-2.68-2.28-.69-.97-1.17-2.12-1.46-3.45-.28-1.32-.37-2.77-.27-4.32.11-2.33.6-4.8,1.48-7.39.88-2.6,2.12-5.17,3.71-7.71.04-.11.12-.27.26-.48.64-.99,1.39-2.02,2.25-3.1.87-1.08,1.8-2.11,2.81-3.1,1.01-.99,2.08-1.9,3.23-2.73,1.15-.83,2.34-1.49,3.58-1.99,1.31-.53,2.63-.79,3.98-.79,1.27,0,2.33.27,3.18.79.81.5,1.42,1.18,1.83,2.04.41.87.62,1.79.64,2.78.02.99-.14,2-.48,3.02-.34,1.02-.84,1.96-1.51,2.81-.04.07-.07.12-.11.13-.04.02-.07.06-.11.13-.64.78-1.42,1.51-2.36,2.2-.94.69-1.9,1.25-2.89,1.7-.99.44-1.95.72-2.89.82-.94.11-1.74-.03-2.41-.42.92-.42,1.86-.97,2.84-1.64.97-.67,1.9-1.55,2.78-2.65.53-.71,1.02-1.48,1.48-2.33.46-.85.87-1.8,1.22-2.86.18-.74.17-1.41-.03-2.01-.2-.6-.79-.92-1.78-.95-.88-.03-1.8.23-2.76.79-.95.57-1.88,1.27-2.78,2.12-.9.85-1.75,1.75-2.54,2.7s-1.46,1.8-1.99,2.54l-.48.64c-2.08,3-3.58,5.79-4.48,8.37-.9,2.58-1.32,4.77-1.25,6.57.04,1.27.32,2.29.85,3.05.53.76,1.27,1.17,2.23,1.25.95.07,2.08-.23,3.39-.9,1.31-.67,2.79-1.8,4.45-3.39,1.62-1.59,3.39-3.66,5.3-6.2,1.91-2.54,3.94-5.67,6.1-9.38Z"/><path class="cls-1" d="m61.15,33.55c-.85,1.38-1.63,2.77-2.36,4.19-.72,1.41-1.29,2.68-1.7,3.79-.41,1.11-.58,2.02-.53,2.73.05.71.45,1.06,1.19,1.06.56,0,1.19-.25,1.88-.74.69-.49,1.4-1.13,2.12-1.91.72-.78,1.44-1.63,2.15-2.57.71-.94,1.36-1.84,1.96-2.7.6-.87,1.12-1.64,1.56-2.33.44-.69.77-1.19.98-1.51.28-.49.64-.72,1.09-.66.44.05.66.27.66.66,0,.14-.05.32-.16.53-.28.5-.69,1.21-1.22,2.15-.53.94-1.17,1.96-1.91,3.07-.74,1.11-1.55,2.25-2.41,3.42s-1.78,2.23-2.73,3.18c-.95.95-1.93,1.73-2.94,2.33-1.01.6-1.99.9-2.94.9s-1.78-.29-2.38-.87c-.6-.58-1.05-1.28-1.35-2.09-.3-.81-.46-1.66-.48-2.54-.02-.88.06-1.64.24-2.28-.42.6-.93,1.33-1.51,2.17-.58.85-1.21,1.67-1.88,2.46-.67.79-1.4,1.49-2.2,2.09-.79.6-1.62.95-2.46,1.06-.07,0-.15,0-.24.03-.09.02-.17.03-.24.03-.11,0-.21,0-.32-.03-.11-.02-.19-.03-.26-.03-1.45-.14-2.51-.7-3.18-1.67-.67-.97-1.03-2.2-1.09-3.68s.18-3.12.69-4.9c.51-1.78,1.25-3.56,2.2-5.33.78-1.45,1.67-2.83,2.68-4.13,1.01-1.31,2.11-2.46,3.31-3.47,1.2-1.01,2.46-1.81,3.79-2.41,1.33-.6,2.68-.9,4.05-.9.78,0,1.43.17,1.96.5.53.34.95.72,1.27,1.17.32.44.54.87.66,1.27.12.41.19.68.19.82.28-.39.6-.83.95-1.33.35-.49.6-.83.74-1.01.39-.49.84-.86,1.35-1.09.51-.23,1.03-.34,1.56-.34h.05c.71,0,1.4.24,2.07.72s1.06,1.05,1.17,1.72c-.18.11-.47.42-.87.93-.41.51-.89,1.16-1.46,1.93-.57.78-1.17,1.64-1.8,2.6-.64.95-1.27,1.96-1.91,3.02Zm-5.25-2.12c.07-.25.21-.63.42-1.14s.34-1.02.4-1.54c.05-.51-.02-.97-.21-1.38-.2-.41-.66-.64-1.41-.72-.42-.03-.94.12-1.54.45-.6.34-1.23.82-1.88,1.46-.65.64-1.32,1.39-1.99,2.25-.67.87-1.31,1.78-1.91,2.73-.53.85-1.03,1.72-1.48,2.62s-.85,1.78-1.17,2.65c-.32.87-.55,1.69-.69,2.46-.14.78-.18,1.48-.11,2.12.14,1.03.44,1.61.9,1.75.46.14,1,0,1.62-.45.62-.44,1.29-1.11,2.01-2.01s1.45-1.89,2.17-2.97c.72-1.08,1.41-2.16,2.07-3.26.65-1.09,1.21-2.07,1.67-2.92.28-.53.52-.97.71-1.33.19-.35.33-.62.4-.79Z"/><path class="cls-1" d="m83.09,22.63c1.34,0,2.4.27,3.18.82.78.55,1.25,1.25,1.4,2.12.16.87,0,1.86-.48,2.99-.48,1.13-1.3,2.28-2.46,3.44-.42.46-.89.81-1.4,1.06-.51.25-1.02.41-1.51.48-.39.07-.74.07-1.06,0-.5-.07-.85-.3-1.06-.69-.21-.39-.16-.94.16-1.64.32.14.69.12,1.11-.08.42-.19.84-.49,1.25-.87.41-.39.79-.84,1.14-1.35.35-.51.62-1,.79-1.46.18-.46.24-.84.19-1.14-.05-.3-.26-.45-.61-.45-.6,0-1.28.2-2.04.61-.76.41-1.55.96-2.38,1.67-.83.71-1.64,1.53-2.44,2.46-.79.94-1.51,1.92-2.15,2.94-.88,1.45-1.59,2.92-2.12,4.4-.53,1.48-.85,2.84-.95,4.05-.11,1.22.04,2.22.45,2.99.41.78,1.09,1.17,2.04,1.17,1.52,0,3.01-.42,4.48-1.25,1.47-.83,2.86-1.86,4.19-3.1,1.33-1.24,2.55-2.6,3.68-4.08,1.13-1.48,2.12-2.88,2.97-4.19.28-.49.64-.72,1.09-.66.44.05.66.27.66.66,0,.14-.05.32-.16.53-2.93,5.05-6.01,8.82-9.22,11.32-3.22,2.49-6.33,3.74-9.33,3.74-1.91,0-3.37-.47-4.37-1.4-1.01-.94-1.64-2.15-1.91-3.63-.27-1.48-.2-3.15.19-5.01s1.06-3.7,2.01-5.54c.99-1.94,2.11-3.61,3.37-5.01,1.25-1.4,2.54-2.53,3.84-3.39,1.31-.87,2.61-1.5,3.9-1.91,1.29-.41,2.48-.61,3.58-.61Z"/><path class="cls-1" d="m95.81,22.63c.99-1.55,2-3.1,3.05-4.64,1.04-1.54,2.04-2.99,3-4.37.95-1.38,1.85-2.63,2.68-3.76.83-1.13,1.53-2.07,2.09-2.81.18-.21.33-.4.45-.56.12-.16.24-.31.34-.45.39-.49.84-.89,1.35-1.19.51-.3,1.03-.45,1.56-.45.71,0,1.4.27,2.09.82.69.55,1.07,1.16,1.14,1.83-.71.6-1.53,1.48-2.46,2.62-.94,1.15-1.93,2.44-2.99,3.87-1.06,1.43-2.13,2.93-3.21,4.5-1.08,1.57-2.09,3.1-3.05,4.58-.88,1.34-1.67,2.57-2.36,3.68-.69,1.11-1.26,2.06-1.72,2.84-.14.25-.27.49-.4.72-.12.23-.26.49-.4.77.53-.56,1.15-1.31,1.85-2.23.71-.92,1.47-1.8,2.28-2.65.81-.85,1.65-1.58,2.52-2.2.87-.62,1.72-.93,2.57-.93,1.48,0,2.5.41,3.05,1.22.55.81.71,1.8.48,2.97-.23,1.17-.79,2.37-1.7,3.6-.9,1.24-2.02,2.28-3.37,3.13-.78.5-1.61.88-2.49,1.17-.88.28-1.82.42-2.81.42.32.39.53.92.64,1.59.11.67.17,1.4.19,2.2.02.79.02,1.61,0,2.44-.02.83.02,1.58.11,2.25.09.67.26,1.22.5,1.64.25.42.64.64,1.17.64.57,0,1.19-.25,1.88-.74.69-.49,1.4-1.12,2.12-1.88.72-.76,1.44-1.61,2.15-2.54.71-.94,1.38-1.86,2.01-2.78.64-.92,1.21-1.77,1.72-2.54.51-.78.91-1.4,1.19-1.85.28-.49.65-.72,1.11-.66.46.05.67.27.64.66,0,.14-.05.32-.16.53-.42.71-.94,1.57-1.54,2.6-.6,1.03-1.26,2.09-1.99,3.21-.72,1.11-1.51,2.22-2.36,3.31-.85,1.1-1.72,2.08-2.62,2.94-.9.87-1.82,1.58-2.76,2.15-.94.57-1.86.85-2.78.85h-.21c-.95,0-1.7-.27-2.23-.82-.53-.55-.94-1.24-1.22-2.07-.28-.83-.46-1.75-.53-2.76-.07-1.01-.12-1.97-.13-2.89-.02-.92-.04-1.74-.08-2.46-.04-.72-.14-1.25-.32-1.56-.32-.46-.62-.67-.9-.64-.28.04-.54.18-.77.42-.23.25-.43.55-.61.9-.18.35-.32.64-.42.85-.74,1.52-1.33,2.85-1.75,4-.42,1.15-.75,2.16-.98,3.02-.23.87-.38,1.58-.45,2.15-.07.57-.09,1.03-.05,1.38-.64.32-1.24.48-1.8.48-.49,0-.92-.13-1.27-.4s-.67-.61-.95-1.03c-.42-.74-.55-1.76-.37-3.05.18-1.29.5-2.63.95-4.03.46-1.4.97-2.74,1.54-4.03.57-1.29,1.04-2.31,1.43-3.05.74-1.55,1.68-3.27,2.81-5.14,1.13-1.87,2.31-3.8,3.55-5.78Zm2.12,8.8c.25.18.58.28,1.01.32.39.04.87,0,1.46-.13.58-.12,1.33-.43,2.25-.93,1.09-.56,1.93-1.33,2.52-2.31.58-.97.92-1.84,1.01-2.6.09-.76-.11-1.25-.58-1.48-.48-.23-1.23.1-2.25.98-.6.53-1.22,1.15-1.85,1.85-.64.71-1.22,1.38-1.75,2.01-.64.74-1.24,1.5-1.8,2.28Z"/><path class="cls-1" d="m117.38,25.49c.28-.81.72-1.49,1.3-2.04.58-.55,1.35-.82,2.31-.82h.05c.71,0,1.4.24,2.09.72.69.48,1.07,1.05,1.14,1.72l-.11.11c-.6.67-1.01,1.51-1.22,2.52s-.32,2.11-.32,3.31c0,.42.04.85.11,1.27.07.42.14.85.21,1.27.18.74.35,1.52.53,2.33.18.81.26,1.7.26,2.65v.95c1.45-.78,2.75-1.7,3.9-2.78,1.15-1.08,2.02-2.13,2.62-3.15.39-.67.8-.95,1.25-.85.44.11.63.39.56.85,0,.07-.07.25-.21.53-1.1,1.91-2.39,3.44-3.87,4.61-1.48,1.17-3.04,2.14-4.66,2.92-.28,1.2-.72,2.22-1.33,3.05-.6.83-1.25,1.56-1.96,2.2-.64.71-1.39,1.25-2.25,1.64-.87.39-1.76.6-2.68.64h-.48c-.99-.03-1.84-.25-2.54-.64-.71-.39-1.21-.88-1.51-1.48-.3-.6-.37-1.25-.21-1.93s.61-1.35,1.35-1.99c.39-.32.84-.58,1.35-.79s1.06-.39,1.64-.53c.58-.14,1.17-.26,1.75-.34.58-.09,1.14-.19,1.67-.29.04-.88-.04-1.86-.21-2.94-.18-1.08-.41-2.29-.69-3.63-.04-.18-.06-.34-.08-.5-.02-.16-.04-.33-.08-.5-.11-.53-.18-1.07-.21-1.62-.04-.55-.07-1.1-.11-1.67-.28.57-.58,1.12-.9,1.67-.32.55-.62,1.09-.9,1.62-.07.11-.13.2-.19.29-.05.09-.1.17-.13.24-.25.42-.5.68-.74.77-.25.09-.46.08-.64-.03s-.29-.28-.34-.53c-.05-.25,0-.49.13-.74.81-1.34,1.59-2.73,2.33-4.16.74-1.43,1.41-2.73,2.01-3.9Zm-3.66,18.76c-.67.46-1.08.89-1.22,1.3-.14.41-.1.74.13,1.01.23.26.58.43,1.06.5.48.07.99-.03,1.54-.29s1.07-.7,1.56-1.3c.5-.6.87-1.45,1.11-2.54-.71.18-1.43.34-2.17.5-.74.16-1.41.43-2.01.82Z"/><path class="cls-1" d="m147.86,33.55c-.42,1.24-.98,2.5-1.67,3.79-.69,1.29-1.49,2.57-2.41,3.84.32.28.65.52,1.01.72.35.19.74.32,1.17.37.42.05.92.02,1.48-.11.56-.12,1.22-.4,1.96-.82s1.4-.94,1.99-1.54c.58-.6,1.12-1.25,1.62-1.93.49-.69.95-1.4,1.38-2.15.42-.74.88-1.47,1.38-2.17.28-.53.64-.77,1.09-.72.44.05.66.29.66.72,0,.14-.05.32-.16.53-.67,1.2-1.37,2.46-2.09,3.79-.72,1.33-1.6,2.54-2.62,3.63-1.03,1.1-2.29,2.01-3.79,2.73-1.5.72-3.35,1.09-5.54,1.09-.39,0-.79-.07-1.19-.21-.41-.14-.8-.34-1.19-.58-1.27,1.31-2.53,2.37-3.76,3.18-1.24.81-2.58,1.29-4.03,1.43-.11,0-.21,0-.32.03-.11.02-.21.03-.32.03s-.21,0-.32-.03c-.11-.02-.21-.03-.32-.03-1.38-.14-2.39-.7-3.05-1.67-.65-.97-1.02-2.2-1.11-3.68-.09-1.48.1-3.12.56-4.9.46-1.78,1.13-3.56,2.01-5.33.71-1.45,1.54-2.83,2.52-4.13.97-1.31,2.02-2.46,3.15-3.47s2.35-1.81,3.66-2.41c1.31-.6,2.65-.9,4.03-.9h.05c1.31,0,2.36.28,3.15.85.79.57,1.36,1.34,1.7,2.33.33.99.44,2.15.32,3.47-.12,1.33-.45,2.75-.98,4.27Zm-11.66,0c-.18.28-.35.58-.53.9-.18.32-.35.64-.53.95-.11.21-.28.6-.53,1.17-.25.57-.5,1.21-.74,1.93-.25.72-.48,1.49-.69,2.31-.21.81-.35,1.56-.42,2.23-.07.67-.03,1.23.13,1.67.16.44.49.66.98.66.78,0,1.6-.25,2.46-.74.87-.49,1.72-1.15,2.57-1.96-.28-.46-.46-.93-.53-1.4-.07-.48.02-.93.26-1.35.28-.46.72-.66,1.33-.61.6.05,1.11.17,1.54.34,1.62-2.19,2.79-4.22,3.5-6.1.78-2.01,1.07-3.66.87-4.93-.19-1.27-.73-2-1.62-2.17-.88-.18-2.03.28-3.45,1.38-1.41,1.1-2.95,3-4.61,5.72Z"/><path class="cls-1" d="m161.42,24.22c.46-.53.93-.93,1.4-1.19.48-.27.91-.4,1.3-.4.67,0,1.31.23,1.91.69.6.46.99.99,1.17,1.59.85-.71,1.72-1.26,2.62-1.67.9-.41,1.83-.61,2.78-.61.64,0,1.26.16,1.88.48s1.19.83,1.72,1.54c.49.64.74,1.33.74,2.09s-.14,1.52-.42,2.28c-.28.76-.65,1.53-1.11,2.31-.46.78-.88,1.52-1.27,2.23v.05c-.5.92-1.01,1.81-1.54,2.68-.53.87-1.02,1.7-1.48,2.49-.46.79-.86,1.54-1.19,2.23-.34.69-.56,1.3-.66,1.83-.14.6-.18,1.14-.11,1.62.07.48.46.77,1.17.87.56,0,1.19-.25,1.88-.74.69-.49,1.4-1.13,2.12-1.91.72-.78,1.43-1.63,2.12-2.57.69-.94,1.33-1.84,1.91-2.7.58-.87,1.09-1.64,1.54-2.33.44-.69.75-1.19.93-1.51.28-.49.64-.72,1.09-.66.44.05.66.27.66.66,0,.14-.05.32-.16.53-.28.5-.68,1.2-1.19,2.12-.51.92-1.12,1.93-1.83,3.05-.71,1.11-1.48,2.24-2.33,3.39-.85,1.15-1.73,2.2-2.65,3.15-.92.95-1.87,1.74-2.86,2.36-.99.62-1.96.95-2.92.98h-.16c-1.73-.14-2.95-1.04-3.66-2.7-.39-.85-.52-1.79-.4-2.84.12-1.04.39-2.13.8-3.26.41-1.13.91-2.27,1.51-3.42.6-1.15,1.22-2.27,1.86-3.37.67-1.13,1.29-2.19,1.85-3.18.57-.99,1-1.85,1.3-2.6.3-.74.4-1.33.29-1.75-.11-.42-.51-.64-1.22-.64-.88,0-2.12.62-3.71,1.85-1.59,1.24-3.32,3.34-5.19,6.31-.39.6-.77,1.24-1.14,1.91-.37.67-.75,1.38-1.14,2.12-.53,1.17-1.02,2.31-1.46,3.45-.44,1.13-.82,2.18-1.14,3.15-.32.97-.56,1.85-.72,2.62-.16.78-.22,1.4-.19,1.85-.71.32-1.33.48-1.86.48-.49,0-.92-.13-1.27-.4-.35-.27-.64-.61-.85-1.03-.28-.53-.38-1.29-.29-2.28.09-.99.3-2.12.64-3.39.34-1.27.79-2.64,1.35-4.11.57-1.47,1.2-2.92,1.91-4.37.88-1.8,1.82-3.52,2.81-5.17s1.94-3.03,2.86-4.16Z"/><path class="cls-1" d="m221.42,22.63c.92-1.7,1.9-3.38,2.94-5.06,1.04-1.68,2.13-3.23,3.26-4.66s2.32-2.68,3.58-3.74,2.55-1.84,3.9-2.33c.78-.28,1.62-.46,2.54-.53.92-.03,1.64.07,2.17.32.53.25,1.09.65,1.7,1.22.39.32.41.51.05.58-1.24.28-2.46.88-3.66,1.8-1.2.92-2.38,2.02-3.52,3.31-1.15,1.29-2.24,2.72-3.29,4.29-1.04,1.57-2.04,3.17-2.99,4.8-.64,1.13-1.25,2.25-1.86,3.37-.6,1.11-1.17,2.18-1.7,3.21.95.11,1.81.2,2.57.29.76.09,1.39.13,1.88.13,1.77.07,3.22.04,4.37-.08,1.15-.12,2.11-.31,2.89-.56.78-.25,1.42-.52,1.93-.82.51-.3,1.02-.61,1.51-.93-.11,1.63-.5,2.88-1.17,3.76-.67.88-1.51,1.53-2.52,1.93-1.01.41-2.15.6-3.42.58-1.27-.02-2.54-.11-3.82-.29-1.06-.14-2.07-.31-3.02-.5-.95-.19-1.87-.38-2.76-.56-.14.25-.26.48-.37.69-.11.21-.21.42-.32.64-.04,0-.05.02-.05.05-1.48,2.76-2.86,5.47-4.13,8.14-1.27,2.67-2.53,5.15-3.76,7.45-1.34,2.47-2.7,4.61-4.08,6.41-1.38,1.8-2.92,3.07-4.61,3.82-.74.32-1.5.53-2.28.64-.78.11-1.54.11-2.28,0-1.38-.18-2.66-.69-3.84-1.54-1.18-.85-2.09-2-2.73-3.45-.21-.5-.3-.81-.26-.95.04-.14.28-.3.74-.48.6-.25,1.15-.46,1.64-.64.49-.18,1.04-.42,1.64-.74,1.55-.81,3.07-1.84,4.56-3.07,2.54-2.08,4.89-4.52,7.05-7.31,2.16-2.79,4.05-5.55,5.67-8.27.18-.28.33-.55.45-.79.12-.25.27-.51.45-.79.07-.18.15-.33.24-.45.09-.12.17-.27.24-.45-1.7-.21-3.38-.23-5.06-.05-1.68.18-3.51.71-5.49,1.59.25-.92.74-1.66,1.48-2.23.74-.56,1.66-.99,2.76-1.27,1.09-.28,2.3-.45,3.6-.5,1.31-.05,2.65-.04,4.03.03.49-.92,1-1.89,1.51-2.91.51-1.02,1.05-2.05,1.62-3.07Zm-5.04,0c.25.28.53.53.85.74.32.21.71.39,1.17.53-.14.42-.44.76-.9,1.01-.46.25-.98.4-1.56.45s-1.16.02-1.72-.11c-.57-.12-1.03-.33-1.38-.61-.74-.53-1.27-1.2-1.59-2.01-.57-1.2-.73-2.59-.5-4.16.23-1.57.8-3.19,1.7-4.85.9-1.66,2.08-3.29,3.55-4.9,1.47-1.61,3.17-3.05,5.12-4.32,2.01-1.31,4.22-2.36,6.62-3.15,2.4-.79,4.96-1.19,7.68-1.19,1.87,0,3.69.2,5.46.61,1.77.41,3.53.86,5.3,1.35,1.77.5,3.54.95,5.33,1.38,1.78.42,3.65.64,5.59.64s3.98-.27,6.1-.82c2.12-.55,4.38-1.55,6.78-2.99.11-.11.19-.16.27-.16.14,0,.28.25.42.74-.32,1.41-.79,2.62-1.43,3.6-.81,1.27-1.85,2.24-3.1,2.92-1.25.67-2.65,1.14-4.19,1.4s-3.18.34-4.93.24-3.52-.31-5.3-.61c-1.79-.3-3.54-.65-5.27-1.06-1.73-.41-3.36-.8-4.88-1.19-1.52-.39-2.88-.72-4.08-.98-1.2-.27-2.17-.4-2.92-.4-1.87,0-3.72.34-5.54,1.01-1.82.67-3.51,1.54-5.06,2.6s-2.96,2.25-4.21,3.58c-1.25,1.32-2.24,2.65-2.94,3.98-.71,1.32-1.12,2.59-1.25,3.79s.15,2.19.82,2.97Z"/><path class="cls-1" d="m263.02,33.55c-.85,1.38-1.63,2.77-2.36,4.19-.72,1.41-1.29,2.68-1.7,3.79-.41,1.11-.58,2.02-.53,2.73.05.71.45,1.06,1.19,1.06.56,0,1.19-.25,1.88-.74.69-.49,1.4-1.13,2.12-1.91.72-.78,1.44-1.63,2.15-2.57.71-.94,1.36-1.84,1.96-2.7.6-.87,1.12-1.64,1.56-2.33.44-.69.77-1.19.98-1.51.28-.49.64-.72,1.09-.66.44.05.66.27.66.66,0,.14-.05.32-.16.53-.28.5-.69,1.21-1.22,2.15-.53.94-1.17,1.96-1.91,3.07-.74,1.11-1.55,2.25-2.41,3.42s-1.78,2.23-2.73,3.18c-.95.95-1.93,1.73-2.94,2.33-1.01.6-1.99.9-2.94.9s-1.78-.29-2.38-.87c-.6-.58-1.05-1.28-1.35-2.09-.3-.81-.46-1.66-.48-2.54-.02-.88.06-1.64.24-2.28-.42.6-.93,1.33-1.51,2.17-.58.85-1.21,1.67-1.88,2.46-.67.79-1.4,1.49-2.2,2.09-.79.6-1.62.95-2.46,1.06-.07,0-.15,0-.24.03-.09.02-.17.03-.24.03-.11,0-.21,0-.32-.03-.11-.02-.19-.03-.26-.03-1.45-.14-2.51-.7-3.18-1.67-.67-.97-1.03-2.2-1.09-3.68s.18-3.12.69-4.9c.51-1.78,1.25-3.56,2.2-5.33.78-1.45,1.67-2.83,2.68-4.13,1.01-1.31,2.11-2.46,3.31-3.47,1.2-1.01,2.46-1.81,3.79-2.41,1.33-.6,2.68-.9,4.05-.9.78,0,1.43.17,1.96.5.53.34.95.72,1.27,1.17.32.44.54.87.66,1.27.12.41.19.68.19.82.28-.39.6-.83.95-1.33.35-.49.6-.83.74-1.01.39-.49.84-.86,1.35-1.09.51-.23,1.03-.34,1.56-.34h.05c.71,0,1.4.24,2.07.72s1.06,1.05,1.17,1.72c-.18.11-.47.42-.87.93-.41.51-.89,1.16-1.46,1.93-.57.78-1.17,1.64-1.8,2.6-.64.95-1.27,1.96-1.91,3.02Zm-5.25-2.12c.07-.25.21-.63.42-1.14s.34-1.02.4-1.54c.05-.51-.02-.97-.21-1.38-.2-.41-.66-.64-1.41-.72-.42-.03-.94.12-1.54.45-.6.34-1.23.82-1.88,1.46-.65.64-1.32,1.39-1.99,2.25-.67.87-1.31,1.78-1.91,2.73-.53.85-1.03,1.72-1.48,2.62s-.85,1.78-1.17,2.65c-.32.87-.55,1.69-.69,2.46-.14.78-.18,1.48-.11,2.12.14,1.03.44,1.61.9,1.75.46.14,1,0,1.62-.45.62-.44,1.29-1.11,2.01-2.01s1.45-1.89,2.17-2.97c.72-1.08,1.41-2.16,2.07-3.26.65-1.09,1.21-2.07,1.67-2.92.28-.53.52-.97.71-1.33.19-.35.33-.62.4-.79Z"/><path class="cls-1" d="m297.42,25.39c-.85,0-2.04.58-3.58,1.75s-3.21,3.13-5.01,5.88c-.07.07-.12.16-.16.26s-.09.19-.16.27v.05c-.53.95-1.03,1.84-1.51,2.65-.48.81-.93,1.73-1.35,2.76-.28.74-.6,1.56-.95,2.46-.35.9-.67,1.8-.95,2.7-.28.9-.52,1.75-.72,2.54s-.27,1.44-.24,1.93c-.71.32-1.33.48-1.85.48-.46,0-.87-.13-1.22-.4s-.65-.61-.9-1.03c-.39-.74-.49-1.75-.29-3.02s.55-2.6,1.06-3.97c.51-1.38,1.08-2.7,1.7-3.98s1.16-2.28,1.62-3.02c0-.04,0-.06.03-.08.02-.02.03-.04.03-.08.67-1.13,1.29-2.19,1.86-3.18.56-.99,1-1.85,1.3-2.6.3-.74.4-1.33.29-1.75-.11-.42-.51-.64-1.22-.64-.88,0-2.12.62-3.71,1.85-1.59,1.24-3.32,3.34-5.19,6.31-.42.64-.85,1.33-1.27,2.07-.64,1.34-1.23,2.68-1.78,4-.55,1.33-1.02,2.57-1.4,3.74-.39,1.17-.69,2.21-.9,3.13-.21.92-.3,1.64-.26,2.17-.71.32-1.33.48-1.86.48-.49,0-.92-.13-1.27-.4-.35-.27-.64-.61-.85-1.03-.28-.53-.39-1.29-.32-2.28.07-.99.28-2.12.64-3.39.35-1.27.81-2.64,1.38-4.11.57-1.47,1.2-2.92,1.91-4.37.88-1.8,1.81-3.52,2.78-5.17s1.92-3.03,2.84-4.16c.46-.53.94-.93,1.43-1.19.49-.27.94-.4,1.33-.4.64,0,1.25.22,1.85.66.6.44,1.01.95,1.22,1.51.81-.64,1.66-1.16,2.54-1.56.88-.41,1.78-.61,2.7-.61.64,0,1.26.16,1.88.48s1.19.83,1.72,1.54c.32.42.53.87.64,1.32.11.46.12.94.05,1.43,1.13-1.31,2.37-2.43,3.71-3.37,1.34-.94,2.74-1.4,4.19-1.4.67,0,1.31.16,1.91.48.6.32,1.18.83,1.75,1.54.49.64.74,1.33.74,2.09s-.14,1.52-.42,2.28c-.28.76-.65,1.53-1.11,2.31-.46.78-.88,1.52-1.27,2.23l-.05.05c-.5.92-1,1.81-1.51,2.68-.51.87-1,1.7-1.46,2.49-.46.79-.86,1.54-1.19,2.23-.34.69-.56,1.3-.66,1.83-.18.6-.22,1.14-.13,1.62.09.48.49.77,1.19.87.56,0,1.19-.25,1.88-.74.69-.49,1.39-1.13,2.09-1.91.71-.78,1.41-1.63,2.12-2.57.71-.94,1.35-1.84,1.93-2.7.58-.87,1.09-1.64,1.51-2.33.42-.69.74-1.19.95-1.51.28-.49.64-.72,1.09-.66.44.05.66.27.66.66,0,.14-.05.32-.16.53-.28.5-.68,1.2-1.19,2.12-.51.92-1.12,1.93-1.83,3.05-.71,1.11-1.48,2.24-2.33,3.39-.85,1.15-1.73,2.2-2.65,3.15-.92.95-1.87,1.74-2.86,2.36-.99.62-1.96.95-2.92.98h-.21c-.92-.07-1.66-.34-2.23-.79-.57-.46-1.04-1.09-1.43-1.91-.35-.85-.48-1.79-.37-2.84.11-1.04.36-2.13.77-3.26.41-1.13.92-2.27,1.54-3.42.62-1.15,1.25-2.27,1.88-3.37.67-1.13,1.29-2.19,1.85-3.18.57-.99,1-1.85,1.3-2.6.3-.74.4-1.33.29-1.75-.11-.42-.51-.64-1.22-.64Z"/><path class="cls-1" d="m313.37,24.06c.39-.49.84-.86,1.35-1.09.51-.23,1.02-.34,1.51-.34h.05c.71,0,1.41.24,2.09.72.69.48,1.07,1.05,1.14,1.72-.18.11-.47.42-.88.93s-.89,1.16-1.46,1.93c-.57.78-1.17,1.64-1.8,2.6-.63.95-1.27,1.96-1.91,3.02-.85,1.38-1.63,2.77-2.36,4.19-.72,1.41-1.29,2.68-1.7,3.79s-.58,2.02-.53,2.73c.05.71.45,1.06,1.19,1.06.56,0,1.2-.25,1.91-.74.71-.49,1.42-1.13,2.15-1.91.72-.78,1.44-1.63,2.15-2.57.71-.94,1.35-1.84,1.94-2.7.58-.87,1.09-1.64,1.54-2.33.44-.69.77-1.19.98-1.51.28-.49.65-.72,1.11-.66.46.05.67.27.63.66,0,.14-.05.32-.16.53-.28.5-.7,1.21-1.25,2.15-.55.94-1.18,1.96-1.91,3.07-.72,1.11-1.52,2.25-2.38,3.42s-1.78,2.23-2.73,3.18c-.96.95-1.94,1.73-2.94,2.33-1.01.6-1.99.9-2.94.9-1.24,0-2.18-.44-2.84-1.33-.65-.88-1.07-1.87-1.25-2.97-.11-.67-.1-1.45.03-2.33.12-.88.34-1.81.66-2.78.32-.97.71-1.98,1.17-3.02.46-1.04.95-2.09,1.48-3.15.99-1.94,2.03-3.76,3.13-5.46,1.09-1.7,2.03-3.04,2.81-4.03Zm5.99-4.08c-.67-.39-1.08-1-1.22-1.83-.14-.83.02-1.65.48-2.46.46-.81,1.09-1.36,1.88-1.64.79-.28,1.53-.23,2.2.16.67.39,1.09.99,1.25,1.8.16.81,0,1.63-.5,2.44-.46.81-1.08,1.37-1.86,1.67-.78.3-1.52.26-2.23-.13Z"/><path class="cls-1" d="m327.15,22.63c.99-1.55,2.01-3.1,3.05-4.64,1.04-1.54,2.04-2.99,2.99-4.37.95-1.38,1.84-2.63,2.65-3.76.81-1.13,1.52-2.07,2.12-2.81.14-.21.27-.4.4-.56.12-.16.24-.31.35-.45.39-.49.84-.89,1.35-1.19.51-.3,1.03-.45,1.56-.45.35,0,.72.08,1.09.24.37.16.71.36,1.01.61.3.25.56.53.77.85.21.32.35.64.42.95-.71.6-1.54,1.48-2.49,2.62-.95,1.15-1.96,2.44-3.02,3.87-1.06,1.43-2.13,2.93-3.21,4.5-1.08,1.57-2.09,3.1-3.05,4.58-.88,1.34-1.67,2.57-2.36,3.68-.69,1.11-1.26,2.06-1.72,2.84-.42.74-.83,1.48-1.22,2.23-.39.74-.78,1.47-1.17,2.17-.85,1.59-1.59,3.1-2.23,4.53-.63,1.43-1.11,2.69-1.43,3.76-.32,1.08-.44,1.93-.37,2.54.07.62.37.93.9.93.67,0,1.42-.25,2.25-.74.83-.49,1.68-1.13,2.54-1.91.87-.78,1.7-1.63,2.52-2.57.81-.94,1.56-1.84,2.25-2.7.69-.87,1.28-1.64,1.78-2.33.49-.69.85-1.19,1.06-1.51.28-.49.64-.72,1.09-.66.44.05.66.27.66.66,0,.14-.05.32-.16.53-.28.5-.71,1.21-1.3,2.15-.58.94-1.27,1.96-2.07,3.07-.79,1.11-1.68,2.25-2.65,3.42-.97,1.17-2,2.23-3.07,3.18s-2.2,1.73-3.37,2.33c-1.17.6-2.31.9-3.45.9-.92,0-1.67-.2-2.25-.61-.58-.41-1.03-.93-1.35-1.56-.32-.64-.51-1.35-.58-2.15-.07-.79-.05-1.56.05-2.31.18-1.17.55-2.52,1.11-4.05.57-1.54,1.26-3.15,2.07-4.85l.05-.05c.74-1.55,1.68-3.27,2.81-5.14,1.13-1.87,2.33-3.8,3.6-5.78Z"/><path class="cls-1" d="m341.89,24.01c.39-.49.84-.85,1.35-1.06s1.04-.32,1.56-.32c.71,0,1.4.24,2.09.72s1.07,1.05,1.14,1.72c-.18.11-.47.42-.87.93-.41.51-.89,1.16-1.46,1.93-.56.78-1.17,1.64-1.8,2.6-.64.95-1.27,1.96-1.91,3.02-.85,1.38-1.63,2.77-2.36,4.19-.72,1.41-1.29,2.68-1.7,3.79s-.58,2.02-.53,2.73c.05.71.45,1.06,1.19,1.06.49,0,1.06-.19,1.7-.56.64-.37,1.3-.87,1.99-1.48.69-.62,1.39-1.31,2.09-2.07.71-.76,1.39-1.53,2.07-2.31.46-.92.92-1.81,1.38-2.68.46-.87.94-1.76,1.43-2.68.92-1.66,1.88-3.29,2.89-4.88,1.01-1.59,2.08-3.13,3.21-4.61.74-.95,1.71-1.43,2.92-1.43h.05c.71,0,1.39.24,2.07.72.67.48,1.06,1.05,1.17,1.72-.21.14-.47.41-.77.79-.3.39-.54.69-.71.9-.81,1.13-1.59,2.25-2.33,3.37s-1.45,2.25-2.12,3.42c-1.13,1.91-2.19,3.82-3.18,5.72-.99,1.91-2.02,3.83-3.07,5.78-.18.32-.34.63-.48.93-.14.3-.3.59-.48.87l.11-.05c1.2-.64,2.39-1.35,3.58-2.15s2.38-1.72,3.58-2.78c1.2-1.06,2.39-2.27,3.58-3.63,1.18-1.36,2.36-2.92,3.52-4.69.28-.49.65-.72,1.11-.66.46.05.67.27.64.66,0,.14-.05.32-.16.53-1.34,2.33-2.7,4.3-4.05,5.91-1.36,1.61-2.75,2.98-4.16,4.11-1.41,1.13-2.84,2.09-4.27,2.86-1.43.78-2.91,1.5-4.43,2.17l-.32.16-.11.05c-1.34,2.33-2.65,4.49-3.92,6.47-1.27,1.98-2.42,3.6-3.45,4.88-1.91,2.4-3.68,4.12-5.3,5.14-1.62,1.02-3.11,1.54-4.45,1.54-1.06,0-1.87-.31-2.44-.93-.56-.62-.87-1.39-.93-2.31-.05-.92.13-1.91.56-2.97.42-1.06,1.06-2.03,1.91-2.91,1.73-1.8,3.49-3.26,5.27-4.37,1.79-1.11,3.61-2.09,5.49-2.94l.16-.11c.18-.28.34-.57.48-.85.14-.28.3-.57.48-.85l.79-1.43c.18-.28.33-.54.45-.77.12-.23.26-.47.4-.72-.99.88-1.98,1.59-2.97,2.12-.99.53-1.94.79-2.86.79-1.24,0-2.18-.44-2.84-1.33-.65-.88-1.07-1.89-1.24-3.02-.11-.67-.1-1.44.03-2.31.12-.87.35-1.78.66-2.76.32-.97.71-1.98,1.17-3.02.46-1.04.96-2.09,1.48-3.15.99-1.94,2.03-3.76,3.13-5.46s2.03-3.06,2.81-4.08Zm-10.39,34.48c-.71.6-1.29,1.2-1.75,1.79-.46.59-.77,1.13-.93,1.62-.16.5-.17.9-.03,1.2.14.3.46.45.95.45.81,0,1.79-.63,2.94-1.89,1.15-1.26,2.54-3.22,4.16-5.89.25-.36.48-.7.69-1.04.21-.34.44-.7.69-1.09l-.11.05c-1.06.64-2.15,1.35-3.26,2.13-1.11.78-2.23,1.67-3.37,2.66Z"/><path class="cls-1" d="m399.44,4.4c2.12-1.34,4.34-2.4,6.65-3.18,2.31-.78,4.69-1.17,7.13-1.17h.05c2.16,0,3.85.4,5.09,1.19,1.24.8,2.1,1.85,2.6,3.15.53,1.34.71,2.86.53,4.56-.18,1.7-.59,3.37-1.24,5.03-.65,1.66-1.48,3.22-2.46,4.66-.99,1.45-2.05,2.6-3.18,3.45l-.21.21c-.07.07-.14.12-.21.16-.07.04-.14.09-.21.16-.88.71-1.96,1.33-3.23,1.88-1.27.55-2.54.89-3.82,1.03-1.27.14-2.44.02-3.5-.37-1.06-.39-1.82-1.17-2.28-2.33,0-.03,0-.06-.03-.08-.02-.02-.03-.06-.03-.13-.39-1.24-.39-2.56,0-3.98.39-1.41,1.02-2.79,1.88-4.13.87-1.34,1.89-2.57,3.07-3.68s2.37-1.97,3.55-2.57c1.18-.6,2.29-.89,3.31-.87,1.03.02,1.82.5,2.38,1.46-1.31.07-2.58.47-3.81,1.19-1.24.72-2.36,1.61-3.37,2.65-1.01,1.04-1.87,2.15-2.57,3.31s-1.17,2.22-1.38,3.15c-.21.94-.14,1.65.21,2.15.35.5,1.1.58,2.23.27,1.38-.39,2.57-.97,3.58-1.75,1.01-.78,1.93-1.61,2.78-2.49.57-.74,1.14-1.57,1.72-2.49.58-.92,1.11-1.86,1.56-2.84.46-.97.82-1.91,1.09-2.81.27-.9.36-1.71.29-2.44-.07-.72-.34-1.3-.82-1.72-.48-.42-1.25-.64-2.31-.64-1.91,0-3.86.49-5.86,1.48-2,.99-3.97,2.32-5.94,4-1.96,1.68-3.87,3.62-5.72,5.82s-3.56,4.51-5.12,6.91c-1.17,1.8-2.23,3.63-3.21,5.48-.97,1.85-1.81,3.66-2.52,5.43,0,.04,0,.07-.03.11s-.03.07-.03.1c-.32.78-.63,1.77-.93,2.97-.3,1.2-.56,2.51-.77,3.92-.21,1.41-.36,2.85-.45,4.31-.09,1.47-.08,2.85.03,4.16.14,1.87.51,3.43,1.11,4.69.6,1.25,1.52,1.88,2.76,1.88,2.4,0,4.87-.62,7.39-1.85,2.53-1.24,5.01-2.81,7.45-4.72,1.48-1.17,2.91-2.41,4.27-3.74,1.36-1.32,2.65-2.67,3.87-4.03,1.22-1.36,2.35-2.71,3.39-4.05,1.04-1.34,1.95-2.6,2.73-3.76.28-.49.65-.72,1.11-.66.46.05.67.27.63.66,0,.18-.05.34-.16.48-.57.95-1.26,2.03-2.09,3.23s-1.76,2.46-2.78,3.79c-1.03,1.33-2.15,2.68-3.37,4.05s-2.48,2.72-3.79,4.03c-1.45,1.41-2.93,2.76-4.45,4.05-1.52,1.29-3.05,2.42-4.58,3.41-1.54.98-3.06,1.78-4.56,2.41-1.5.63-2.96.97-4.37,1.05-.42.07-.83.07-1.22,0h-.05c-3.39-.04-5.96-1.05-7.71-3.05-1.75-2-2.8-4.6-3.15-7.82-.28-2.26-.23-4.72.16-7.37.39-2.65,1.04-5.39,1.96-8.21.6-1.84,1.29-3.67,2.07-5.49.78-1.82,1.68-3.63,2.7-5.43,2.02-3.71,4.39-7.15,7.13-10.31,2.74-3.16,5.75-5.8,9.04-7.92Z"/><path class="cls-1" d="m423.35,22.63c.99-1.55,2-3.1,3.05-4.64,1.04-1.54,2.04-2.99,2.99-4.37.96-1.38,1.84-2.63,2.65-3.76.81-1.13,1.52-2.07,2.12-2.81.14-.21.27-.4.4-.56.12-.16.24-.31.34-.45.39-.49.84-.89,1.35-1.19.51-.3,1.03-.45,1.56-.45.35,0,.71.08,1.09.24.37.16.71.36,1.01.61.3.25.56.53.77.85.21.32.35.64.42.95-.67.6-1.49,1.48-2.46,2.65-.97,1.17-2,2.47-3.07,3.92-1.08,1.45-2.17,2.97-3.26,4.56-1.1,1.59-2.1,3.07-3.02,4.45-.5.74-.96,1.45-1.38,2.12-.42.67-.79,1.27-1.11,1.8,1.02-1.09,2.14-2.01,3.34-2.76s2.42-1.13,3.66-1.17h.27c.64.04,1.25.2,1.83.5.58.3,1.14.8,1.67,1.51.49.64.74,1.33.74,2.09s-.14,1.52-.42,2.28-.65,1.53-1.11,2.31c-.46.78-.88,1.52-1.27,2.23l-.05.05c-.5.92-1,1.81-1.51,2.68-.51.87-1,1.7-1.46,2.49-.46.79-.86,1.54-1.19,2.23-.34.69-.56,1.3-.66,1.83-.18.57-.22,1.1-.13,1.59.09.5.49.79,1.19.9.56,0,1.19-.25,1.88-.74.69-.49,1.39-1.13,2.09-1.91.71-.78,1.41-1.63,2.12-2.57.71-.94,1.35-1.84,1.93-2.7.58-.87,1.09-1.64,1.51-2.33.42-.69.74-1.19.95-1.51.28-.49.64-.72,1.09-.66.44.05.66.27.66.66,0,.14-.05.32-.16.53-.28.5-.68,1.21-1.19,2.15-.51.94-1.13,1.96-1.86,3.07-.72,1.11-1.51,2.25-2.36,3.42s-1.74,2.23-2.68,3.18c-.94.95-1.91,1.73-2.92,2.33-1.01.6-1.99.9-2.94.9-1.73-.14-2.97-1.04-3.71-2.7-.35-.85-.48-1.79-.37-2.84.11-1.04.36-2.13.77-3.26.41-1.13.92-2.27,1.54-3.42.62-1.15,1.25-2.27,1.88-3.37.67-1.13,1.29-2.19,1.85-3.18.56-.99,1-1.85,1.3-2.6.3-.74.4-1.33.29-1.75-.11-.42-.51-.64-1.22-.64-.42,0-.95.15-1.59.45-.63.3-1.34.77-2.12,1.4-.78.64-1.61,1.48-2.49,2.52-.88,1.04-1.78,2.31-2.7,3.79-.39.6-.77,1.23-1.14,1.88-.37.65-.75,1.33-1.14,2.04l-.32.64c-.74,1.52-1.33,2.85-1.75,4-.42,1.15-.75,2.16-.98,3.02-.23.87-.38,1.58-.45,2.15-.07.57-.09,1.03-.05,1.38-.63.32-1.24.48-1.8.48-.49,0-.92-.13-1.27-.4s-.65-.61-.9-1.03c-.46-.78-.6-1.81-.42-3.1.18-1.29.5-2.63.96-4.03.46-1.4.97-2.73,1.54-4,.56-1.27,1.02-2.26,1.38-2.97l.05-.05c.74-1.55,1.68-3.27,2.81-5.14,1.13-1.87,2.33-3.8,3.61-5.78Z"/><path class="cls-1" d="m448.1,13.94c.35-.03.73-.04,1.14-.03.41.02.75.11,1.04.29.63.32,1.11.85,1.43,1.59.21.57.26,1.15.13,1.75-.12.6-.42,1.5-.88,2.7.81.39,1.71.77,2.7,1.14.99.37,1.91.79,2.76,1.25.14.07.27.14.37.21.85.5,1.33,1.18,1.43,2.07.11.88.02,1.84-.27,2.86-.28,1.02-.69,2.05-1.22,3.07-.53,1.03-1.03,1.93-1.48,2.7-.11.18-.2.34-.29.48-.09.14-.17.28-.24.42-.95,1.66-1.86,3.23-2.73,4.72-.87,1.48-1.42,2.7-1.67,3.66-.14.57-.17,1.1-.08,1.59.09.5.48.79,1.19.9.56,0,1.19-.25,1.88-.74.69-.49,1.39-1.13,2.09-1.91.71-.78,1.4-1.63,2.09-2.57.69-.94,1.32-1.84,1.91-2.7.58-.87,1.09-1.64,1.54-2.33.44-.69.75-1.19.93-1.51.28-.49.64-.72,1.09-.66.44.05.66.27.66.66,0,.14-.05.32-.16.53-.28.5-.68,1.2-1.19,2.12-.51.92-1.11,1.93-1.8,3.05-.69,1.11-1.46,2.24-2.3,3.39-.85,1.15-1.74,2.2-2.68,3.15-.94.95-1.9,1.74-2.89,2.36-.99.62-1.96.95-2.92.98h-.16c-1.73-.14-2.95-1.04-3.66-2.7-.39-.85-.52-1.8-.4-2.86.12-1.06.39-2.15.79-3.29.41-1.13.91-2.27,1.51-3.42.6-1.15,1.22-2.25,1.86-3.31.39-.6.74-1.18,1.06-1.75.32-.56.62-1.09.9-1.59.6-1.02.97-1.93,1.11-2.7.14-.78-.2-1.43-1.01-1.96-.39-.28-.81-.53-1.27-.74s-.88-.41-1.27-.58c-.67,1.17-1.46,2.61-2.36,4.32-.9,1.71-1.81,3.38-2.73,5.01-.18.21-.28.39-.32.53-.25.42-.5.68-.74.77-.25.09-.46.08-.64-.03-.18-.11-.29-.28-.34-.53-.05-.25,0-.49.13-.74.53-.88,1.05-1.8,1.56-2.76s1-1.87,1.46-2.76c.46-.88.88-1.72,1.27-2.52.39-.8.74-1.48,1.06-2.04-.63-.25-1.15-.53-1.54-.85-.85-.67-1.39-1.48-1.62-2.44-.23-.95-.21-1.88.05-2.78.27-.9.71-1.69,1.35-2.36.64-.67,1.41-1.04,2.33-1.11Zm1.91,2.07c-.07-.18-.16-.33-.27-.45-.11-.12-.23-.22-.37-.29-.6-.32-1.09-.19-1.46.37-.37.57-.56,1.24-.56,2.01,0,.5.15.82.45.98.3.16.86.47,1.67.93.35-.88.56-1.61.63-2.17.07-.56.04-1.02-.11-1.38Z"/><path class="cls-1" d="m467.81,24.06c.39-.49.84-.86,1.35-1.09.51-.23,1.02-.34,1.51-.34h.05c.71,0,1.4.24,2.09.72s1.07,1.05,1.14,1.72c-.18.11-.47.42-.87.93-.41.51-.89,1.16-1.46,1.93-.56.78-1.17,1.64-1.8,2.6-.64.95-1.27,1.96-1.91,3.02-.85,1.38-1.63,2.77-2.36,4.19-.72,1.41-1.29,2.68-1.7,3.79s-.58,2.02-.53,2.73c.05.71.45,1.06,1.19,1.06.56,0,1.2-.25,1.91-.74.71-.49,1.42-1.13,2.15-1.91.72-.78,1.44-1.63,2.15-2.57.71-.94,1.35-1.84,1.93-2.7.58-.87,1.1-1.64,1.54-2.33.44-.69.77-1.19.98-1.51.28-.49.65-.72,1.11-.66.46.05.67.27.64.66,0,.14-.05.32-.16.53-.28.5-.7,1.21-1.24,2.15-.55.94-1.19,1.96-1.91,3.07-.72,1.11-1.52,2.25-2.38,3.42-.87,1.17-1.78,2.23-2.73,3.18-.95.95-1.93,1.73-2.94,2.33-1.01.6-1.99.9-2.94.9-1.24,0-2.18-.44-2.84-1.33-.65-.88-1.07-1.87-1.24-2.97-.11-.67-.1-1.45.03-2.33.12-.88.35-1.81.66-2.78.32-.97.71-1.98,1.17-3.02.46-1.04.96-2.09,1.48-3.15.99-1.94,2.03-3.76,3.13-5.46s2.03-3.04,2.81-4.03Zm5.99-4.08c-.67-.39-1.08-1-1.22-1.83-.14-.83.02-1.65.48-2.46.46-.81,1.09-1.36,1.88-1.64.79-.28,1.53-.23,2.2.16.67.39,1.09.99,1.25,1.8.16.81,0,1.63-.5,2.44-.46.81-1.08,1.37-1.85,1.67-.78.3-1.52.26-2.23-.13Z"/><path class="cls-1" d="m479.52,25.49c.28-.81.72-1.49,1.3-2.04.58-.55,1.35-.82,2.31-.82h.05c.71,0,1.4.24,2.09.72.69.48,1.07,1.05,1.14,1.72l-.11.11c-.6.67-1.01,1.51-1.22,2.52-.21,1.01-.32,2.11-.32,3.31,0,.42.04.85.11,1.27s.14.85.21,1.27c.18.74.35,1.52.53,2.33.18.81.27,1.7.27,2.65v.95c1.45-.78,2.75-1.7,3.89-2.78,1.15-1.08,2.02-2.13,2.62-3.15.39-.67.8-.95,1.25-.85s.63.39.56.85c0,.07-.07.25-.21.53-1.1,1.91-2.39,3.44-3.87,4.61-1.48,1.17-3.04,2.14-4.66,2.92-.28,1.2-.72,2.22-1.33,3.05-.6.83-1.25,1.56-1.96,2.2-.63.71-1.39,1.25-2.25,1.64-.87.39-1.76.6-2.68.64h-.48c-.99-.03-1.84-.25-2.54-.64-.71-.39-1.21-.88-1.51-1.48-.3-.6-.37-1.25-.21-1.93.16-.69.61-1.35,1.35-1.99.39-.32.84-.58,1.35-.79s1.06-.39,1.64-.53c.58-.14,1.17-.26,1.75-.34.58-.09,1.14-.19,1.67-.29.04-.88-.04-1.86-.21-2.94-.18-1.08-.41-2.29-.69-3.63-.04-.18-.06-.34-.08-.5-.02-.16-.04-.33-.08-.5-.11-.53-.18-1.07-.21-1.62-.04-.55-.07-1.1-.11-1.67-.28.57-.58,1.12-.9,1.67-.32.55-.62,1.09-.9,1.62-.07.11-.13.2-.19.29-.05.09-.1.17-.13.24-.25.42-.49.68-.74.77-.25.09-.46.08-.63-.03-.18-.11-.29-.28-.35-.53-.05-.25,0-.49.13-.74.81-1.34,1.59-2.73,2.33-4.16.74-1.43,1.41-2.73,2.01-3.9Zm-3.66,18.76c-.67.46-1.08.89-1.22,1.3-.14.41-.1.74.13,1.01.23.26.58.43,1.06.5.48.07.99-.03,1.54-.29.55-.27,1.07-.7,1.56-1.3.49-.6.87-1.45,1.11-2.54-.71.18-1.43.34-2.17.5-.74.16-1.41.43-2.01.82Z"/><path class="cls-1" d="m498.82,22.63c1.09-1.7,2.2-3.36,3.31-4.98,1.11-1.62,2.18-3.16,3.21-4.61h-4.93c-.32,0-.55-.11-.69-.34-.14-.23-.14-.5,0-.82.11-.32.32-.59.64-.82.32-.23.63-.34.95-.34h5.67c.49-.74.97-1.41,1.43-2.01.46-.6.87-1.15,1.22-1.64.18-.21.33-.4.45-.56.12-.16.24-.31.34-.45.39-.49.84-.89,1.35-1.19.51-.3,1.04-.45,1.56-.45.71,0,1.4.27,2.09.82.69.55,1.07,1.16,1.14,1.83-.42.39-.92.89-1.48,1.51-.56.62-1.17,1.33-1.8,2.15h4.13c.32,0,.55.11.69.34.14.23.14.5,0,.82-.11.32-.32.59-.63.82-.32.23-.64.34-.96.34h-5.04c-1.13,1.48-2.26,3.06-3.39,4.72-1.13,1.66-2.21,3.29-3.23,4.88-.88,1.34-1.67,2.57-2.36,3.68-.69,1.11-1.26,2.06-1.72,2.84-.42.74-.83,1.48-1.22,2.23-.39.74-.78,1.47-1.17,2.17-.85,1.59-1.59,3.1-2.23,4.53-.64,1.43-1.11,2.69-1.43,3.76-.32,1.08-.44,1.93-.37,2.54.07.62.37.93.9.93.67,0,1.42-.25,2.25-.74.83-.49,1.68-1.13,2.54-1.91.87-.78,1.71-1.63,2.52-2.57.81-.94,1.56-1.84,2.25-2.7.69-.87,1.28-1.64,1.78-2.33.49-.69.85-1.19,1.06-1.51.28-.49.64-.72,1.09-.66.44.05.66.27.66.66-.07.21-.14.39-.21.53-.28.5-.71,1.21-1.27,2.15-.56.94-1.25,1.96-2.04,3.07-.79,1.11-1.68,2.25-2.65,3.42-.97,1.17-2,2.23-3.07,3.18-1.08.95-2.2,1.73-3.37,2.33-1.17.6-2.32.9-3.45.9-.92,0-1.67-.2-2.25-.61-.58-.41-1.03-.93-1.35-1.56-.32-.64-.51-1.35-.58-2.15s-.05-1.56.05-2.31c.14-1.17.5-2.52,1.06-4.05.56-1.54,1.27-3.15,2.12-4.85v-.05c.78-1.55,1.72-3.27,2.84-5.14,1.11-1.87,2.3-3.8,3.58-5.78Z"/><path class="cls-1" d="m534.8,25.39c-.85,0-2.04.58-3.58,1.75s-3.21,3.13-5.01,5.88c-.07.07-.12.16-.16.26s-.09.19-.16.27v.05c-.53.95-1.03,1.84-1.51,2.65-.48.81-.93,1.73-1.35,2.76-.28.74-.6,1.56-.96,2.46-.35.9-.67,1.8-.95,2.7-.28.9-.52,1.75-.72,2.54-.19.79-.27,1.44-.24,1.93-.71.32-1.32.48-1.85.48-.46,0-.87-.13-1.22-.4s-.65-.61-.9-1.03c-.39-.74-.49-1.75-.29-3.02.19-1.27.55-2.6,1.06-3.97.51-1.38,1.08-2.7,1.7-3.98.62-1.27,1.16-2.28,1.62-3.02,0-.04,0-.06.03-.08.02-.02.03-.04.03-.08.67-1.13,1.29-2.19,1.86-3.18.56-.99,1-1.85,1.3-2.6.3-.74.4-1.33.29-1.75-.11-.42-.51-.64-1.22-.64-.88,0-2.12.62-3.71,1.85-1.59,1.24-3.32,3.34-5.19,6.31-.42.64-.85,1.33-1.27,2.07-.63,1.34-1.23,2.68-1.78,4-.55,1.33-1.02,2.57-1.4,3.74s-.69,2.21-.9,3.13c-.21.92-.3,1.64-.27,2.17-.71.32-1.32.48-1.86.48-.49,0-.92-.13-1.27-.4-.35-.27-.63-.61-.85-1.03-.28-.53-.39-1.29-.32-2.28.07-.99.28-2.12.64-3.39s.81-2.64,1.38-4.11c.57-1.47,1.2-2.92,1.91-4.37.88-1.8,1.81-3.52,2.78-5.17.97-1.64,1.92-3.03,2.84-4.16.46-.53.94-.93,1.43-1.19s.94-.4,1.33-.4c.63,0,1.25.22,1.85.66.6.44,1.01.95,1.22,1.51.81-.64,1.66-1.16,2.54-1.56.88-.41,1.78-.61,2.7-.61.64,0,1.26.16,1.88.48.62.32,1.19.83,1.72,1.54.32.42.53.87.64,1.32.11.46.12.94.05,1.43,1.13-1.31,2.37-2.43,3.71-3.37,1.34-.94,2.74-1.4,4.19-1.4.67,0,1.31.16,1.91.48s1.18.83,1.75,1.54c.49.64.74,1.33.74,2.09s-.14,1.52-.42,2.28c-.28.76-.65,1.53-1.11,2.31-.46.78-.88,1.52-1.27,2.23l-.05.05c-.49.92-1,1.81-1.51,2.68-.51.87-1,1.7-1.46,2.49-.46.79-.86,1.54-1.19,2.23-.34.69-.56,1.3-.66,1.83-.18.6-.22,1.14-.13,1.62s.49.77,1.19.87c.56,0,1.19-.25,1.88-.74.69-.49,1.39-1.13,2.09-1.91.71-.78,1.41-1.63,2.12-2.57.71-.94,1.35-1.84,1.94-2.7.58-.87,1.09-1.64,1.51-2.33.42-.69.74-1.19.96-1.51.28-.49.64-.72,1.09-.66.44.05.66.27.66.66,0,.14-.05.32-.16.53-.28.5-.68,1.2-1.19,2.12-.51.92-1.12,1.93-1.83,3.05-.71,1.11-1.48,2.24-2.33,3.39-.85,1.15-1.73,2.2-2.65,3.15-.92.95-1.87,1.74-2.86,2.36-.99.62-1.96.95-2.92.98h-.21c-.92-.07-1.66-.34-2.23-.79-.57-.46-1.04-1.09-1.43-1.91-.35-.85-.48-1.79-.37-2.84.11-1.04.36-2.13.77-3.26.41-1.13.92-2.27,1.54-3.42.62-1.15,1.25-2.27,1.88-3.37.67-1.13,1.29-2.19,1.86-3.18.56-.99,1-1.85,1.3-2.6.3-.74.4-1.33.29-1.75-.11-.42-.51-.64-1.22-.64Z"/><path class="cls-1" d="m564.59,33.55c-.85,1.38-1.63,2.77-2.36,4.19-.72,1.41-1.29,2.68-1.7,3.79s-.58,2.02-.53,2.73c.05.71.45,1.06,1.19,1.06.56,0,1.19-.25,1.88-.74.69-.49,1.39-1.13,2.12-1.91.72-.78,1.44-1.63,2.15-2.57.71-.94,1.36-1.84,1.96-2.7.6-.87,1.12-1.64,1.56-2.33.44-.69.77-1.19.98-1.51.28-.49.64-.72,1.09-.66.44.05.66.27.66.66,0,.14-.05.32-.16.53-.28.5-.69,1.21-1.22,2.15-.53.94-1.17,1.96-1.91,3.07-.74,1.11-1.55,2.25-2.41,3.42-.87,1.17-1.78,2.23-2.73,3.18-.95.95-1.93,1.73-2.94,2.33-1.01.6-1.99.9-2.94.9s-1.78-.29-2.38-.87-1.05-1.28-1.35-2.09c-.3-.81-.46-1.66-.48-2.54-.02-.88.06-1.64.24-2.28-.42.6-.93,1.33-1.51,2.17-.58.85-1.21,1.67-1.88,2.46-.67.79-1.4,1.49-2.2,2.09-.79.6-1.62.95-2.46,1.06-.07,0-.15,0-.24.03-.09.02-.17.03-.24.03-.11,0-.21,0-.32-.03-.11-.02-.19-.03-.26-.03-1.45-.14-2.51-.7-3.18-1.67-.67-.97-1.04-2.2-1.09-3.68s.18-3.12.69-4.9c.51-1.78,1.25-3.56,2.2-5.33.78-1.45,1.67-2.83,2.68-4.13,1.01-1.31,2.11-2.46,3.31-3.47,1.2-1.01,2.46-1.81,3.79-2.41,1.32-.6,2.68-.9,4.05-.9.78,0,1.43.17,1.96.5.53.34.95.72,1.27,1.17.32.44.54.87.66,1.27.12.41.19.68.19.82.28-.39.6-.83.96-1.33.35-.49.6-.83.74-1.01.39-.49.84-.86,1.35-1.09.51-.23,1.03-.34,1.56-.34h.05c.71,0,1.4.24,2.07.72.67.48,1.06,1.05,1.17,1.72-.18.11-.47.42-.87.93-.41.51-.89,1.16-1.46,1.93-.56.78-1.16,1.64-1.8,2.6s-1.27,1.96-1.91,3.02Zm-5.25-2.12c.07-.25.21-.63.42-1.14.21-.51.34-1.02.4-1.54.05-.51-.02-.97-.21-1.38-.2-.41-.66-.64-1.41-.72-.42-.03-.94.12-1.54.45-.6.34-1.23.82-1.88,1.46-.65.64-1.32,1.39-1.99,2.25-.67.87-1.31,1.78-1.91,2.73-.53.85-1.03,1.72-1.48,2.62s-.85,1.78-1.17,2.65c-.32.87-.55,1.69-.69,2.46-.14.78-.18,1.48-.11,2.12.14,1.03.44,1.61.9,1.75.46.14,1,0,1.62-.45.62-.44,1.29-1.11,2.01-2.01s1.45-1.89,2.17-2.97c.72-1.08,1.41-2.16,2.07-3.26.65-1.09,1.21-2.07,1.67-2.92.28-.53.52-.97.71-1.33.19-.35.33-.62.4-.79Z"/><path class="cls-1" d="m576.19,25.49c.28-.81.72-1.49,1.3-2.04.58-.55,1.35-.82,2.31-.82h.05c.71,0,1.4.24,2.09.72.69.48,1.07,1.05,1.14,1.72l-.11.11c-.6.67-1.01,1.51-1.22,2.52-.21,1.01-.32,2.11-.32,3.31,0,.42.04.85.11,1.27s.14.85.21,1.27c.18.74.35,1.52.53,2.33.18.81.27,1.7.27,2.65v.95c1.45-.78,2.75-1.7,3.89-2.78,1.15-1.08,2.02-2.13,2.62-3.15.39-.67.8-.95,1.25-.85s.63.39.56.85c0,.07-.07.25-.21.53-1.1,1.91-2.39,3.44-3.87,4.61-1.48,1.17-3.04,2.14-4.66,2.92-.28,1.2-.72,2.22-1.33,3.05-.6.83-1.25,1.56-1.96,2.2-.63.71-1.39,1.25-2.25,1.64-.87.39-1.76.6-2.68.64h-.48c-.99-.03-1.84-.25-2.54-.64-.71-.39-1.21-.88-1.51-1.48-.3-.6-.37-1.25-.21-1.93.16-.69.61-1.35,1.35-1.99.39-.32.84-.58,1.35-.79s1.06-.39,1.64-.53c.58-.14,1.17-.26,1.75-.34.58-.09,1.14-.19,1.67-.29.04-.88-.04-1.86-.21-2.94-.18-1.08-.41-2.29-.69-3.63-.04-.18-.06-.34-.08-.5-.02-.16-.04-.33-.08-.5-.11-.53-.18-1.07-.21-1.62-.04-.55-.07-1.1-.11-1.67-.28.57-.58,1.12-.9,1.67-.32.55-.62,1.09-.9,1.62-.07.11-.13.2-.19.29-.05.09-.1.17-.13.24-.25.42-.49.68-.74.77-.25.09-.46.08-.63-.03-.18-.11-.29-.28-.35-.53-.05-.25,0-.49.13-.74.81-1.34,1.59-2.73,2.33-4.16.74-1.43,1.41-2.73,2.01-3.9Zm-3.66,18.76c-.67.46-1.08.89-1.22,1.3-.14.41-.1.74.13,1.01.23.26.58.43,1.06.5.48.07.99-.03,1.54-.29.55-.27,1.07-.7,1.56-1.3.49-.6.87-1.45,1.11-2.54-.71.18-1.43.34-2.17.5-.74.16-1.41.43-2.01.82Z"/></svg>