<?xml version="1.0" encoding="UTF-8"?><svg id="Layer_1" xmlns="http://www.w3.org/2000/svg" viewBox="0 0 177.6 175.45"><defs><style>.cls-1{fill:#ed6353;}.cls-2{fill:#e7a362;}.cls-3{fill:#e87359;}.cls-4{fill:#a23047;}.cls-5{fill:#2f5652;}.cls-6{fill:#adca9d;}.cls-7{fill:#b33d3a;}.cls-8{fill:#d94b5c;}.cls-9{fill:#cc4939;}.cls-10{fill:#13090f;}.cls-11{fill:#3f645b;}.cls-12{fill:#1c2739;}.cls-13{fill:#3d695f;}.cls-14{fill:#6e8a64;}.cls-15{fill:#a2855e;}.cls-16{fill:#467066;}.cls-17{fill:#5b2e0d;}.cls-18{fill:#294b48;}.cls-19{fill:#607857;}</style></defs><g><path class="cls-11" d="m167.34,77.91c-.02.1.08.76.08.76l1.66.35,7.6,1.61c.41.09.81-.17.89-.58.08-.42-.17-.81-.58-.89l-8.76-1.85c-.25-.05-.51.03-.69.21-.11.11-.18.25-.2.4Z"/><path class="cls-11" d="m150.57,75.69c.04.09.09.18.16.25l9.83,10.19c.29.3.77.31,1.07.02.3-.29.31-.77.02-1.07l-9.11-9.46,11.34-5.68c.37-.19.53-.63.34-1.01-.19-.37-.64-.52-1.01-.34l-12.26,6.14c-.21.11-.36.31-.41.55-.02.14,0,.27.04.4Z"/><path class="cls-11" d="m157.34,76.56c.04.09.09.18.16.25l6.15,6.31c.29.3.77.3,1.07.01.3-.29.31-.77.01-1.07l-5.32-5.46,7.33-2.57c.39-.14.6-.57.46-.96-.15-.4-.57-.6-.96-.46l-8.45,2.96c-.24.09-.43.29-.48.54-.04.15-.02.31.03.45Z"/><path class="cls-11" d="m165.38,77.89c.04.09.09.18.16.25l6.15,6.31c.29.3.77.3,1.07.01.3-.29.31-.77.01-1.07l-5.32-5.46,7.33-2.57c.39-.14.6-.57.46-.96-.15-.4-.57-.6-.96-.46l-8.45,2.96c-.24.09-.43.29-.48.54-.04.15-.02.31.03.45Z"/><path class="cls-11" d="m144.39,75.13c.03.07.06.13.11.19l9.39,12.13c.25.33.73.39,1.06.13.33-.26.39-.73.13-1.06l-8.94-11.55,10.9-8.88c.32-.26.37-.74.11-1.06-.26-.32-.74-.37-1.06-.11l-11.47,9.34c-.26.21-.34.56-.23.86Z"/><path class="cls-11" d="m136.47,74.75c.02.06.05.11.09.16l8.92,12.58c.24.34.71.42,1.05.18.34-.24.42-.71.18-1.05l-8.55-12.05,10.97-10.69c.3-.29.3-.77.01-1.07-.29-.3-.77-.3-1.07-.01l-11.43,11.14c-.22.21-.28.54-.18.81Z"/><path class="cls-11" d="m128.42,74.76c.02.05.05.11.08.16l9.8,14.13c.24.34.71.43,1.05.19.34-.24.43-.71.19-1.05l-9.44-13.61,12.01-11.97c.29-.29.3-.77,0-1.07-.29-.3-.77-.3-1.07,0l-12.45,12.42c-.22.22-.28.53-.17.81Z"/><path class="cls-11" d="m120.5,75.15s.04.09.07.13l9.48,14.92c.22.35.69.46,1.04.23.35-.22.46-.69.23-1.04l-9.21-14.5,9.78-14.53c.23-.35.14-.82-.2-1.05-.35-.23-.81-.14-1.05.2l-10.06,14.94c-.14.21-.17.47-.08.69Z"/><path class="cls-11" d="m112.99,75.92s.02.05.03.07l8.44,16.19c.19.37.65.51,1.02.32.37-.19.51-.66.32-1.02l-8.25-15.83,7.42-13.41c.2-.36.07-.82-.29-1.02-.36-.2-.82-.07-1.03.29l-7.62,13.76c-.11.2-.12.43-.04.64Z"/><path class="cls-11" d="m103.58,78.21s.04.09.06.12l9.28,14.91c.22.35.69.46,1.04.24.35-.22.46-.69.24-1.04l-9.05-14.54,7.75-14.79c.19-.37.05-.82-.32-1.02-.37-.19-.82-.05-1.02.32l-7.95,15.18c-.1.2-.11.42-.03.62Z"/><path class="cls-11" d="m94.85,81.2c.02.06.06.12.1.17l9.95,13.48c.25.34.72.41,1.05.16.34-.25.41-.72.16-1.05l-9.7-13.14,6.62-15.98c.16-.38-.02-.83-.41-.99-.38-.16-.83.02-.99.41l-6.79,16.37c-.08.18-.08.38,0,.56Z"/><path class="cls-11" d="m86.82,83.96c.03.07.06.13.11.19l9.91,12.72c.26.33.73.39,1.06.13.33-.26.39-.73.13-1.06l-9.64-12.38,6.6-16.59c.15-.39-.03-.83-.42-.98-.39-.15-.83.03-.98.42l-6.75,17c-.07.18-.07.38,0,.55Z"/><path class="cls-11" d="m78.61,87.53c.03.07.07.14.12.2l10.07,12.33c.26.32.74.37,1.06.11.32-.26.37-.74.11-1.06l-9.84-12.04,3.96-16.39c.1-.4-.15-.81-.56-.91-.4-.1-.81.15-.91.56l-4.05,16.76c-.04.15-.03.31.03.45Z"/><path class="cls-1" d="m69.6,92.3s.03.08.06.12c.21.36.68.47,1.03.26,7.69-4.62,17.74-8.95,29.87-12.86,30.23-9.75,67.29-.98,67.66-.89.4.1.81-.15.91-.56.1-.4-.15-.81-.56-.91-.37-.09-37.83-8.96-68.47.92-12.24,3.95-22.4,8.32-30.18,13-.32.19-.45.58-.31.92Z"/></g><g><path class="cls-14" d="m63.61,82.15s24.86-10.74,22.27-16.14c-2.59-5.39-22.27,16.14-22.27,16.14Z"/><path class="cls-14" d="m65.64,72.57s24.46-10.43,21.87-15.83c-2.59-5.39-21.87,15.83-21.87,15.83Z"/><path class="cls-14" d="m69.18,62.49s24.44-10.39,21.85-15.78c-2.59-5.39-21.85,15.78-21.85,15.78Z"/><path class="cls-14" d="m73.91,51.21s25.07-11.05,22.48-16.44c-2.59-5.39-22.48,16.44-22.48,16.44Z"/><path class="cls-14" d="m81.83,37.83s25.16-11.19,22.57-16.58c-2.59-5.39-22.57,16.58-22.57,16.58Z"/><path class="cls-14" d="m81.83,37.83s2.38-26.99,8.42-26.64c6.04.35-8.42,26.64-8.42,26.64Z"/><path class="cls-14" d="m73.91,51.21s-3.49-27.97,2.55-27.62c6.04.35-2.55,27.62-2.55,27.62Z"/><path class="cls-14" d="m69.22,62.14s-10.13-26.18-4.1-25.83c6.04.35,4.1,25.83,4.1,25.83Z"/><path class="cls-14" d="m65.97,72.08s-12.81-24.17-6.77-23.82c6.04.35,6.77,23.82,6.77,23.82Z"/><path class="cls-14" d="m63.25,82.67s-14.17-23.44-8.13-23.1c6.04.35,8.13,23.1,8.13,23.1Z"/><path class="cls-14" d="m97.12,19.25s.81,1.29,1.34.96c4.1-2.54,22-14.79,19.45-19.45-2.87-5.26-20.79,18.49-20.79,18.49Z"/><path class="cls-19" d="m85.88,66.01c-.06-.12-.13-.23-.21-.33l-22.06,16.46s24.86-10.74,22.27-16.14Z"/><path class="cls-19" d="m87.51,56.74c-.03-.07-.07-.13-.11-.18l-21.76,16.01s24.46-10.43,21.87-15.83Z"/><path class="cls-19" d="m58.83,48.27c-5.11.69,7.14,23.8,7.14,23.8l-7.14-23.8Z"/><path class="cls-19" d="m69.34,62.31l.06.08c2.21-.96,20.96-9.22,21.8-14.48l-21.26,13.76c-.27.29-.47.5-.6.64Z"/><path class="cls-19" d="m69.28,61.22l-4.85-24.79c-4.08,1.63,3.24,21.61,4.58,25.16l.27-.37Z"/><path class="cls-19" d="m74.07,50.7c.06-.2.14-.46.23-.77l2.05-26.34c-5.43,0-2.92,23.47-2.5,27.14.08-.01.15-.02.21-.03Z"/><path class="cls-19" d="m96.45,34.91l-21.65,15.76s.03.04.07.1c4.52-2.07,23.42-11.07,21.57-15.86Z"/><path class="cls-19" d="m82.33,36.91l7.65-25.72c-5.06.4-7.47,20.12-8.02,25.36l.35.4s.02-.03.02-.05Z"/><path class="cls-19" d="m82.38,37.58c3.64-1.66,24.24-11.34,22.05-16.28l-20.81,14.71-1.23,1.57Z"/><path class="cls-19" d="m117.93.83l-20.37,19c.27.29.62.55.89.38,4.08-2.53,21.81-14.67,19.48-19.38Z"/><path class="cls-14" d="m60.66,103.45c-.26-.09-.48-.3-.55-.59-.13-.55-4.02-5.27,7.2-37.76,11.21-32.48,32.19-47.84,32.51-48.11.35-.28.87-.23,1.16.11.29.34.24.85-.1,1.13-.32.26-20.94,15.34-32.01,47.39-11.06,32.06-7.19,36.74-7.16,36.87.1.43-.17.87-.61.96-.15.03-.3.02-.44-.02Z"/></g><g><path class="cls-14" d="m95.96,103.03s4.73,21.3,9.39,20.06c4.66-1.23-9.39-20.06-9.39-20.06Z"/><path class="cls-14" d="m103.23,106.09s4.55,20.93,9.21,19.7c4.66-1.23-9.21-19.7-9.21-19.7Z"/><path class="cls-14" d="m110.67,110.41s4.52,20.91,9.18,19.68c4.66-1.23-9.18-19.68-9.18-19.68Z"/><path class="cls-14" d="m118.87,115.87s4.94,21.51,9.6,20.27c4.66-1.23-9.6-20.27-9.6-20.27Z"/><path class="cls-14" d="m128.26,124.16s5.04,21.6,9.7,20.37c4.66-1.23-9.7-20.37-9.7-20.37Z"/><path class="cls-14" d="m128.26,124.16s20.99,5.97,19.8,10.7c-1.19,4.72-19.8-10.7-19.8-10.7Z"/><path class="cls-14" d="m118.87,115.87s22.66,1.47,21.47,6.2c-1.19,4.72-21.47-6.2-21.47-6.2Z"/><path class="cls-14" d="m110.94,110.5s22.24-4.05,21.06.67c-1.19,4.72-21.06-.67-21.06-.67Z"/><path class="cls-14" d="m103.57,106.42s21.06-6.48,19.87-1.75c-1.19,4.72-19.87,1.75-19.87,1.75Z"/><path class="cls-14" d="m95.6,102.67s20.69-7.66,19.51-2.93c-1.19,4.72-19.51,2.93-19.51,2.93Z"/><path class="cls-14" d="m140.64,139.07s-1.14.45-.96.91c1.39,3.63,8.37,19.64,12.45,18.34,4.59-1.47-11.48-19.25-11.48-19.25Z"/><path class="cls-19" d="m105.35,123.09c.11-.03.2-.07.29-.12l-9.68-19.95s4.73,21.3,9.39,20.06Z"/><path class="cls-19" d="m112.44,125.78c.06-.02.11-.03.16-.06l-9.37-19.64s4.55,20.93,9.21,19.7Z"/><path class="cls-19" d="m123.48,104.38c.22-4.15-19.91,2.05-19.91,2.05l19.91-2.05Z"/><path class="cls-19" d="m110.78,110.57l-.07.03c.42,1.89,4.12,17.98,8.16,19.44l-7.67-18.9c-.19-.25-.33-.45-.42-.57Z"/><path class="cls-19" d="m111.66,110.68l20.35-.08c-.67-3.47-17.59-.71-20.6-.19l.25.27Z"/><path class="cls-19" d="m119.25,116.07c.15.08.35.18.58.3l20.53,5.61c.83-4.29-18.12-5.87-21.09-6.09,0,.07,0,.13,0,.17Z"/><path class="cls-19" d="m128.36,136.16l-9.19-19.51s-.03.02-.09.04c.95,3.89,5.21,20.2,9.28,19.47Z"/><path class="cls-19" d="m128.91,124.69l19.19,9.95c.45-4.06-14.78-8.96-18.85-10.19l-.37.21s.02.02.03.03Z"/><path class="cls-19" d="m128.37,124.63c.77,3.13,5.3,20.9,9.54,19.91l-8.48-18.69-1.06-1.22Z"/><path class="cls-19" d="m152.06,158.33l-11.95-18.99c-.27.17-.53.41-.44.64,1.38,3.61,8.3,19.48,12.38,18.35Z"/><path class="cls-14" d="m79.55,97.47c.11-.2.31-.33.55-.34.46-.02,4.77-2.38,28.78,11.41,24,13.79,32.98,32.71,33.13,33.01.17.32.05.72-.27.9-.32.18-.71.06-.88-.25-.16-.29-8.96-18.89-32.64-32.5-23.69-13.61-27.98-11.25-28.09-11.25-.36.02-.66-.26-.67-.63,0-.12.03-.24.08-.35Z"/></g><g><path class="cls-14" d="m54.82,120.48s8.23,12.76,5.34,14.47c-2.89,1.71-5.34-14.47-5.34-14.47Z"/><path class="cls-14" d="m52.77,125.57s8.14,12.49,5.25,14.2c-2.89,1.71-5.25-14.2-5.25-14.2Z"/><path class="cls-14" d="m51.28,131.38s8.15,12.47,5.26,14.17c-2.89,1.71-5.26-14.17-5.26-14.17Z"/><path class="cls-14" d="m49.97,138.11s8.23,12.97,5.34,14.68c-2.89,1.71-5.34-14.68-5.34-14.68Z"/><path class="cls-14" d="m49.48,146.81s8.23,13.06,5.35,14.77c-2.89,1.71-5.35-14.77-5.35-14.77Z"/><path class="cls-14" d="m49.48,146.81s-7.31,13.32-4.39,15.04c2.92,1.72,4.39-15.04,4.39-15.04Z"/><path class="cls-14" d="m49.97,138.11s-10.35,11.94-7.43,13.67c2.92,1.72,7.43-13.67,7.43-13.67Z"/><path class="cls-14" d="m51.19,131.55s-12.89,9.04-9.97,10.76c2.92,1.72,9.97-10.76,9.97-10.76Z"/><path class="cls-14" d="m52.78,125.91s-13.51,7.26-10.59,8.99c2.92,1.72,10.59-8.99,10.59-8.99Z"/><path class="cls-14" d="m54.81,120.12s-13.92,6.5-11,8.23c2.92,1.72,11-8.23,11-8.23Z"/><path class="cls-14" d="m50.81,160.24s.78-.35.92-.03c1.12,2.46,5.63,13.76,2.99,15.13-2.98,1.55-3.92-15.1-3.92-15.1Z"/><path class="cls-19" d="m60.16,134.95c-.07.04-.13.07-.2.09l-5.14-14.56s8.23,12.76,5.34,14.47Z"/><path class="cls-19" d="m58.03,139.77s-.07.04-.11.05l-5.15-14.25s8.14,12.49,5.25,14.2Z"/><path class="cls-19" d="m42.02,134.77c-2.16-1.92,10.76-8.86,10.76-8.86l-10.76,8.86Z"/><path class="cls-19" d="m51.3,131.51l.05-.02c.73,1.14,6.89,10.84,5.64,13.55l-5.61-13.04c-.04-.22-.06-.38-.08-.48Z"/><path class="cls-19" d="m50.93,132l-9.99,10.04c-1.39-2.03,8.25-9.06,9.98-10.3v.26Z"/><path class="cls-19" d="m49.88,138.4c-.03.11-.08.26-.13.43l-7.26,12.91c-2.53-1.69,5.96-11.85,7.3-13.43.03.03.07.06.09.08Z"/><path class="cls-19" d="m55.38,152.74l-5.17-14.1s.02,0,.07-.03c1.46,2.38,7.46,12.46,5.1,14.12Z"/><path class="cls-19" d="m49.42,147.4l-4.46,14.37c-2.23-1.77,2.8-11.71,4.18-14.32l.29-.08s0,.02,0,.03Z"/><path class="cls-19" d="m49.66,147.1c1.18,1.91,7.76,12.85,5.19,14.47l-5.11-13.35-.08-1.12Z"/><path class="cls-19" d="m54.76,175.32l-3.56-15.21c.22-.05.46-.06.53.1,1.11,2.45,5.59,13.64,3.03,15.11Z"/><path class="cls-14" d="m60.09,109.63c-.15-.04-.32,0-.44.1-.23.22-3.51,1.2-8.43,19.84-4.91,18.64.07,32.34.14,32.56.07.24.33.38.57.31.24-.07.38-.32.31-.56-.07-.22-4.97-13.68-.13-32.07,4.85-18.39,8.11-19.36,8.17-19.41.18-.17.19-.46.02-.64-.06-.06-.13-.11-.21-.13Z"/></g><g><path class="cls-14" d="m57.31,82.52s-18.98-.13-18.79-4.32c.19-4.19,18.79,4.32,18.79,4.32Z"/><path class="cls-14" d="m53.38,76.9s-18.64-.04-18.44-4.23c.19-4.19,18.44,4.23,18.44,4.23Z"/><path class="cls-14" d="m48.34,71.36s-18.61-.02-18.42-4.2c.19-4.19,18.42,4.2,18.42,4.2Z"/><path class="cls-14" d="m42.2,65.38s-19.2-.27-19-4.46c.19-4.19,19,4.46,19,4.46Z"/><path class="cls-14" d="m33.43,58.91s-19.3-.33-19.1-4.52c.19-4.19,19.1,4.52,19.1,4.52Z"/><path class="cls-14" d="m33.43,58.91s-8.92-16.76-12.72-14.89c-3.8,1.88,12.72,14.89,12.72,14.89Z"/><path class="cls-14" d="m42.2,65.38s-5.4-19-9.2-17.13c-3.8,1.88,9.2,17.13,9.2,17.13Z"/><path class="cls-14" d="m48.22,71.15s-.62-19.66-4.42-17.79c-3.8,1.88,4.42,17.79,4.42,17.79Z"/><path class="cls-14" d="m53.03,76.67s1.66-19.1-2.15-17.22c-3.8,1.88,2.15,17.22,2.15,17.22Z"/><path class="cls-14" d="m57.69,82.76s2.73-19-1.07-17.13c-3.8,1.88,1.07,17.13,1.07,17.13Z"/><path class="cls-14" d="m18.48,51.11s-.17,1.05-.6.99C14.54,51.58-.36,48.57,0,44.86c.41-4.18,18.47,6.24,18.47,6.24Z"/><path class="cls-19" d="m38.53,78.2c0-.1.02-.18.05-.27l18.74,4.59s-18.98-.13-18.79-4.32Z"/><path class="cls-19" d="m34.94,72.67c0-.05,0-.1.02-.15l18.42,4.38s-18.64-.04-18.44-4.23Z"/><path class="cls-19" d="m51.13,59.36c3.49-.95,1.9,17.31,1.9,17.31l-1.9-17.31Z"/><path class="cls-19" d="m48.19,71.29v.07c-1.7-.01-16.06-.21-18.04-3.38l17.48,3.06c.25.11.44.2.56.25Z"/><path class="cls-19" d="m47.93,70.57l-3.66-17.32c3.07-.07,3.82,14.83,3.93,17.49l-.28-.17Z"/><path class="cls-19" d="m41.96,65.09c-.1-.11-.22-.26-.36-.44l-8.53-16.43c3.5-1.49,8.31,14.34,9.04,16.83-.06.02-.11.03-.15.04Z"/><path class="cls-19" d="m23.2,61.03l18.28,4.25s0,.03-.02.09c-3.49-.1-18.14-.73-18.26-4.33Z"/><path class="cls-19" d="m32.86,58.46l-11.97-14.5c3.37-1.13,10.32,10.94,12.12,14.17l-.11.35s-.02-.02-.03-.02Z"/><path class="cls-19" d="m33.01,58.9c-2.81-.08-18.74-.69-18.68-4.47l17.45,3.8,1.23.68Z"/><path class="cls-19" d="m0,44.92l18.34,6.69c-.1.26-.25.52-.47.49C14.55,51.58-.21,48.6,0,44.92Z"/><path class="cls-14" d="m65.04,95.47c.15-.13.23-.33.19-.53-.07-.39,1.15-4.5-14.98-22.39-16.12-17.89-33.86-22.07-34.14-22.15-.3-.09-.62.09-.71.39-.09.3.08.62.38.7.28.08,17.71,4.17,33.62,21.82,15.91,17.66,14.69,21.74,14.71,21.83.05.31.35.51.66.45.11-.02.2-.07.28-.13Z"/></g><g><path class="cls-11" d="m67,103.19s23.66,27.94,31.33,16.77c6-8.74-31.33-16.77-31.33-16.77Z"/><path class="cls-11" d="m66.95,103.22s6.08,40.94-7.6,39.13c-10.51-1.4,7.6-39.13,7.6-39.13Z"/><path class="cls-18" d="m66.52,104.14l.55-.11c.05.39.12.91.19,1.54l-8.11,36.74c-9.11-1.7,4.7-32.42,7.37-38.17Z"/><path class="cls-18" d="m67.01,103.21c1.35.28,37.21,8.18,31.32,16.76-.05.07-.09.12-.14.19l-31.11-16.86s-.06-.07-.07-.08Z"/><path class="cls-6" d="m64.93,98.2c-.14-.05-.31-.04-.45.04-.28.15-.39.5-.24.78,10.22,19.34,10.91,39.42,10.91,39.62,0,.32.28.57.6.56.32,0,.57-.28.56-.6,0-.2-.7-20.55-11.04-40.13-.07-.14-.19-.23-.33-.28Z"/><path class="cls-6" d="m71.55,114.38c-.15-.05-.31-.04-.46.04-.28.15-.38.51-.23.79l18.36,33.55c.15.28.51.38.79.23.28-.15.38-.51.23-.79l-18.36-33.55c-.07-.13-.19-.23-.33-.27Z"/><path class="cls-6" d="m68.74,106.44c-.16-.05-.34-.04-.49.06-.27.17-.35.53-.18.8,7.92,12.47,25.11,26.78,25.28,26.93.25.2.61.17.82-.08.2-.25.17-.61-.08-.82-.17-.14-17.21-14.34-25.04-26.65-.07-.12-.19-.2-.31-.24Z"/><path class="cls-8" d="m100.07,130.59c-1.76-3.51-6.03-4.92-9.53-3.16-3.51,1.76-4.92,6.03-3.16,9.53,1.76,3.51,6.03,4.92,9.53,3.16,3.51-1.76,4.92-6.03,3.16-9.53Z"/><path class="cls-1" d="m82.35,139.48c-1.76-3.51-6.03-4.92-9.53-3.16-3.51,1.76-4.92,6.03-3.16,9.53,1.76,3.51,6.03,4.92,9.53,3.16,3.51-1.76,4.92-6.03,3.16-9.53Z"/><path class="cls-1" d="m96.68,149.3c-1.45-2.89-4.97-4.06-7.86-2.61-2.89,1.45-4.06,4.97-2.61,7.86,1.45,2.89,4.97,4.06,7.86,2.61,2.89-1.45,4.06-4.97,2.61-7.86Z"/><path class="cls-12" d="m98.5,135.1c-.22-.83-.04-1.88.41-2.35.45-.47,1-.18,1.22.64.22.83.04,1.88-.41,2.35-.45.47-1,.18-1.22-.64Z"/><path class="cls-12" d="m73.59,148.41c-.84-.18-1.69-.82-1.91-1.44-.21-.62.29-.97,1.13-.79.84.18,1.69.82,1.91,1.44.21.62-.29.97-1.13.79Z"/><path class="cls-12" d="m89.59,155.12c.86.02,1.81.5,2.14,1.07.32.57-.11,1.01-.97.99-.86-.02-1.81-.5-2.14-1.07-.32-.57.11-1.01.97-.99Z"/><path class="cls-7" d="m78.28,139.3c-3.34-2.21-6.19-1.71-7.86-1.01.63-.8,1.43-1.48,2.4-1.97,3.51-1.76,7.77-.34,9.53,3.16,1.2,2.39.92,5.14-.49,7.21.08-2.24-.48-5.34-3.58-7.39Z"/><path class="cls-4" d="m100.07,130.59c.05.11.1.22.15.33-1.92-.96-4.59-1.59-7.63-.32-3.76,1.58-4.98,4.21-5.37,6-1.5-3.43-.07-7.48,3.32-9.18,3.51-1.76,7.77-.34,9.53,3.16Z"/><path class="cls-7" d="m91.95,149.17c-3.12-.94-5.14.46-6.27,1.74.31-1.76,1.42-3.35,3.13-4.21,2.89-1.45,6.41-.28,7.86,2.61.75,1.49.8,3.15.27,4.61-.67-1.72-2.07-3.86-5-4.75Z"/></g><g><g><path class="cls-11" d="m140.78,23.22c12.15,7.55-33.34,36.95-33.34,36.95,0,0,21.19-44.5,33.34-36.95Z"/><path class="cls-18" d="m107.44,60.18l33.3-36.97c12.18,7.57-33.3,36.97-33.3,36.97Z"/></g><g><path class="cls-11" d="m113.66,20.55c13.06.69-6.22,39.62-6.22,39.62,0,0-6.84-40.32,6.22-39.62Z"/><path class="cls-18" d="m113.66,20.55c.39.02.74.08,1.07.16l-7.5,38.12c-1.05-6.99-5.2-38.9,6.43-38.28Z"/></g></g><g><g><path class="cls-11" d="m34.52,79.43c2.56-9.21,29.95,14.45,29.95,14.45,0,0-32.51-5.25-29.95-14.45Z"/><path class="cls-18" d="m64.48,93.89l-29.96-14.43c2.57-9.23,29.96,14.43,29.96,14.43Z"/></g><g><path class="cls-11" d="m37.89,97.33c-2-8.51,26.58-3.44,26.58-3.44,0,0-24.57,11.95-26.58,3.44Z"/><path class="cls-18" d="m37.89,97.33c-.06-.25-.09-.49-.1-.72l25.86-2.33c-4.28,1.98-23.97,10.63-25.76,3.05Z"/></g></g><g><path class="cls-5" d="m67.08,90.78s31.72,11.95,55.52-4.45c21.04-14.49,39.85-43.19,43.92-49.65.22-.35-.18-.75-.54-.55l-98.9,54.65Z"/><path class="cls-16" d="m162.51,37.61c-1.45.8-2.85,1.71-4.17,2.73l-.16.1c-.38-.03-.77-.06-1.15-.08-.18.56-.58,1.09-1.25,1.47l-62.23,36.08-17.55,10.18c-1.88,1.09-4.15-1.26-3.33-3.15,5.66-12.99,12.46-25.67,23.92-34.46,10.94-8.38,24.36-12.95,37.94-14.57,8.58-1.02,17.26-.95,25.86-.26,1.29.1,1.96.98,2.1,1.97Z"/><path class="cls-16" d="m165.66,34.86c1.55.24,1.26,2.91-.32,2.76-17.84-1.68-36.05-1.8-52.88,5.23-7.12,2.97-13.82,7.18-19.42,12.5-2.72,2.59-5.22,5.44-7.33,8.55-2.43,3.57-4.23,7.45-5.98,11.39-1.91,4.3-3.93,8.62-7.19,12.08-2.71,2.88-6.67,5.46-10.77,4.9-.78-.11-.57-1.12-.02-1.35,3.79-1.59,6.91-3.47,9.55-6.69,2.83-3.44,4.52-7.69,6.28-11.73,3.25-7.44,7.57-14.07,13.53-19.63,12.04-11.24,27.87-17.05,44.07-18.79,10.09-1.08,20.45-.74,30.47.78Z"/><path class="cls-5" d="m98,58.27c.91,4.42-.61,9.37-2.2,13.46-1.71,4.4-3.99,8.55-7.42,11.84-.31.29-.84-.06-.62-.45,2.21-3.89,4.49-7.81,6.04-12.02.77-2.09,1.3-4.24,1.86-6.39.56-2.13.86-4.35,1.59-6.42.12-.33.66-.42.75,0Z"/><path class="cls-5" d="m111.28,45.29c2.52,5.49,1.47,12.01-.66,17.45-1.1,2.81-2.61,5.36-4.51,7.7-.97,1.2-2.04,2.25-3.23,3.22-1.04.85-2.16,1.88-3.48,2.21-.22.05-.42-.18-.3-.38.61-1.07,1.63-1.88,2.42-2.81.92-1.09,1.78-2.25,2.58-3.42,1.55-2.27,2.85-4.8,3.81-7.38,1.98-5.28,2.03-10.73,2.29-16.28.02-.52.82-.87,1.08-.3Z"/><path class="cls-5" d="m120.15,51.54c.55,1.33.31,3.09.07,4.48-.27,1.59-.72,3.14-1.31,4.64-1.1,2.81-2.89,5.53-5.26,7.42-.15.12-.37-.11-.27-.26,1.66-2.46,3.16-4.93,4.17-7.74.48-1.35.84-2.75,1.07-4.17.12-.73.2-1.47.3-2.2.1-.73.1-1.45.35-2.15.16-.45.71-.44.89-.01Z"/><path class="cls-5" d="m136.32,38.75c.56,4.31-1.83,8.89-3.97,12.47-2.25,3.76-5.1,7.31-8.76,9.77-.66.44-1.22-.47-.81-1.01,2.55-3.33,5.13-6.62,7.13-10.32.96-1.77,1.81-3.61,2.53-5.49.74-1.92,1.52-4.01,2.65-5.74.38-.57,1.14-.34,1.22.31Z"/><path class="cls-13" d="m167.29,36.62c-1.81.82-3.57,1.7-5.31,2.64-.87.47-1.74.94-2.6,1.43-1.02.58-1.84,1.38-2.85,1.98-3.57,2.11-7.29,3.95-10.89,6.02-4.59,2.64-9.07,5.48-13.54,8.34.21,0,.42,0,.63.02,2.23.13,4.37.52,6.5,1.19,2,.63,4.2,1.41,5.67,2.96.21.22.1.69-.26.67-1.96-.16-3.85-.89-5.77-1.31-2.06-.45-4.21-.72-6.32-.84-1.65-.09-3.28,0-4.89.14-1.08.69-2.16,1.38-3.24,2.06-1.56.98-3.13,1.94-4.71,2.89.38-.02.77-.04,1.15-.03,2.34.06,4.55.61,6.69,1.54.26.11.08.5-.17.45-3.28-.67-6.61-.79-9.94-.61-2.59,1.53-5.18,3.03-7.79,4.52,1.8-.22,3.65-.1,5.45.09,3.61.38,7.49,1.51,10.18,4.05.31.29.11.9-.34.87-3.43-.2-6.83-1.06-10.23-1.6-1.74-.28-3.49-.34-5.24-.51-1.38-.14-2.76-.28-4.15-.41-.67.39-1.34.77-2.01,1.16-1.91,1.11-3.84,2.2-5.78,3.26,1,.02,2,.1,2.99.23,4.04.54,8.16,2.33,11.27,4.96.63.54-.14,1.34-.79,1.08-3.62-1.43-7.21-2.38-11.07-2.89-1.84-.24-3.69-.29-5.55-.27-.9,0-1.78.07-2.68.15-.13.01-.26.03-.39.04-3.29,1.7-6.61,3.33-9.97,4.87-4.16,1.9-8.4,3.67-12.71,5.22-2.16.78-4.37,1.45-6.58,2.08-2.14.61-4.32,1.27-6.56,1.06-.62-.06-.86-.79-.33-1.17,1.57-1.09,3.39-1.66,5.2-2.27,2.03-.68,4.04-1.42,6.04-2.2,3.85-1.49,7.65-3.06,11.39-4.81,7.33-3.43,14.35-7.41,21.3-11.54,7.17-4.26,13.94-9.1,21.02-13.49,6.96-4.31,14.02-8.37,21.16-12.37,4.04-2.26,8.12-4.61,12.35-6.5,2.12-.95,4.33-1.49,6.5-2.33,2.15-.84,4.31-1.64,6.46-2.46.93-.36,1.62,1.21.7,1.63Z"/></g><g><path class="cls-5" d="m61.99,94.27s-16.17,4.65-20.78,18.24c-4.07,12.01-3.05,29.01-2.75,32.79.02.2.29.25.38.06l23.16-51.09Z"/><path class="cls-16" d="m39.77,143.75c.34-.75.63-1.53.85-2.32l.03-.09c.16-.1.32-.2.48-.31-.09-.28-.09-.6.06-.96l14.07-32.82,3.97-9.26c.42-.99,2.03-.73,2.26.26,1.6,6.85,2.66,13.91.7,20.81-1.87,6.58-5.85,12.38-10.78,17.05-3.11,2.95-6.59,5.5-10.21,7.78-.54.34-1.07.19-1.42-.16Z"/><path class="cls-16" d="m39.34,145.77c-.69.37-1.36-.78-.69-1.19,7.6-4.62,14.88-9.97,19.5-17.76,1.95-3.3,3.37-6.96,4.02-10.74.32-1.84.46-3.71.38-5.58-.09-2.14-.53-4.22-1-6.31-.51-2.28-.99-4.6-.72-6.94.22-1.95,1.04-4.15,2.83-5.15.34-.19.56.28.41.53-1.04,1.76-1.72,3.43-1.82,5.49-.1,2.21.48,4.4.98,6.53.91,3.92,1.16,7.84.44,11.83-1.46,8.04-6.04,15.06-11.97,20.55-3.69,3.42-7.92,6.36-12.36,8.73Z"/><path class="cls-5" d="m59.32,116.39c-1.67-1.49-2.54-3.91-3.12-6.01-.63-2.26-.95-4.59-.56-6.91.04-.21.35-.23.38,0,.27,2.2.53,4.44,1.16,6.58.32,1.06.74,2.07,1.15,3.09.41,1.01.95,1.98,1.27,3.03.05.17-.14.36-.29.23Z"/><path class="cls-5" d="m57.89,125.49c-2.63-1.44-4.15-4.35-4.91-7.14-.4-1.45-.55-2.91-.49-4.4.03-.76.14-1.5.33-2.24.16-.65.3-1.39.73-1.91.07-.09.22-.05.23.06.07.61-.09,1.23-.13,1.84-.04.7-.04,1.42-.01,2.13.06,1.36.29,2.76.67,4.07.78,2.69,2.38,4.87,3.92,7.16.14.21-.07.59-.34.44Z"/><path class="cls-5" d="m52.5,125.63c-.61-.37-1.04-1.14-1.36-1.76-.36-.71-.64-1.46-.85-2.24-.39-1.44-.49-3.06-.11-4.51.02-.09.18-.07.18.02.07,1.47.2,2.9.64,4.32.21.68.48,1.35.81,1.98.17.33.35.64.53.97.18.32.39.61.5.96.07.23-.15.39-.35.27Z"/><path class="cls-5" d="m49.86,135.52c-1.5-1.55-1.91-4.08-2.12-6.14-.22-2.16-.14-4.42.59-6.49.13-.37.62-.18.62.16-.03,2.08-.08,4.15.22,6.22.14.99.35,1.97.62,2.94.28.99.59,2.05.65,3.07.02.34-.35.47-.58.24Z"/><path class="cls-13" d="m38.17,145.56c.48-.86.91-1.74,1.33-2.63.21-.44.42-.89.61-1.34.23-.53.32-1.1.55-1.64.79-1.9,1.73-3.74,2.55-5.63,1.04-2.41,1.98-4.87,2.91-7.34-.09.06-.17.12-.26.18-.92.61-1.9,1.09-2.94,1.45-.98.34-2.09.69-3.14.5-.15-.03-.25-.25-.09-.34.83-.52,1.8-.79,2.69-1.19.95-.43,1.89-.96,2.76-1.54.68-.45,1.31-.97,1.91-1.51.23-.59.45-1.19.68-1.78.33-.85.67-1.7,1.02-2.55-.15.12-.29.24-.45.35-.95.67-1.99,1.1-3.12,1.37-.14.03-.18-.17-.06-.23,1.51-.71,2.87-1.65,4.14-2.7.58-1.37,1.17-2.74,1.76-4.11-.65.62-1.42,1.12-2.19,1.58-1.55.92-3.43,1.62-5.25,1.41-.21-.02-.31-.33-.12-.45,1.43-.94,3.03-1.61,4.55-2.4.77-.41,1.49-.9,2.24-1.35.59-.35,1.18-.71,1.77-1.07.15-.35.31-.7.46-1.06.43-1.01.88-2.01,1.33-3.01-.4.29-.82.55-1.26.79-1.77.99-3.94,1.5-5.96,1.37-.41-.03-.34-.57,0-.67,1.86-.5,3.58-1.19,5.26-2.13.8-.45,1.55-.98,2.29-1.54.35-.27.69-.56,1.02-.85.05-.04.1-.09.15-.13.8-1.65,1.64-3.29,2.52-4.89,1.09-1.99,2.25-3.95,3.51-5.85.63-.95,1.31-1.87,2-2.78.67-.88,1.34-1.79,2.3-2.37.26-.16.58.06.48.37-.3.9-.86,1.67-1.4,2.45-.61.87-1.19,1.77-1.75,2.67-1.09,1.74-2.14,3.49-3.11,5.29-1.9,3.54-3.51,7.2-5.06,10.91-1.59,3.82-2.85,7.76-4.37,11.61-1.49,3.78-3.1,7.49-4.76,11.2-.94,2.1-1.86,4.24-2.99,6.25-.56,1-1.28,1.88-1.89,2.85-.61.97-1.23,1.93-1.84,2.9-.26.42-1,0-.76-.44Z"/></g><g><path class="cls-5" d="m70.35,92.96s15.07,25.19,40.04,26.9c22.07,1.51,50.29-7.82,56.53-10.01.34-.12.29-.61-.07-.66l-96.51-16.23Z"/><path class="cls-16" d="m163.71,108.32c-1.42-.24-2.85-.37-4.3-.4l-.16-.02c-.25-.22-.49-.45-.74-.68-.42.28-.98.42-1.64.33l-61.63-9.06-17.38-2.56c-1.86-.27-2.13-3.09-.56-3.93,10.84-5.76,22.28-10.7,34.78-10.48,11.93.21,23.49,4.34,33.58,10.56,6.37,3.93,12.22,8.65,17.68,13.75.82.77.8,1.72.37,2.47Z"/><path class="cls-16" d="m167.33,108.14c.93,1-.71,2.65-1.71,1.7-11.19-10.75-23.47-20.64-38.67-24.94-6.43-1.82-13.24-2.58-19.9-1.98-3.24.29-6.47.88-9.58,1.85-3.57,1.11-6.88,2.77-10.19,4.5-3.61,1.88-7.31,3.73-11.38,4.32-3.39.49-7.47.11-9.95-2.48-.47-.49.22-1.07.72-.93,3.42.97,6.56,1.37,10.08.61,3.77-.81,7.2-2.78,10.58-4.57,6.21-3.3,12.71-5.46,19.75-6.02,14.22-1.14,28.09,3.45,40.01,11,7.42,4.7,14.27,10.51,20.24,16.94Z"/><path class="cls-5" d="m108.83,87.57c-1.77,3.49-5.46,6.02-8.74,7.94-3.53,2.06-7.31,3.65-11.41,4.03-.37.03-.54-.49-.18-.64,3.59-1.45,7.25-2.87,10.57-4.9,1.65-1.01,3.16-2.17,4.7-3.33,1.52-1.14,2.92-2.48,4.54-3.5.26-.16.68.07.51.4Z"/><path class="cls-5" d="m124.83,85.93c-1.24,5.08-5.48,8.94-9.84,11.48-2.26,1.31-4.65,2.23-7.21,2.8-1.3.29-2.59.43-3.92.45-1.16.02-2.47.11-3.55-.37-.18-.08-.19-.35,0-.42.99-.4,2.12-.4,3.16-.6,1.21-.24,2.42-.57,3.6-.93,2.28-.7,4.52-1.72,6.56-2.95,4.19-2.52,7.16-6.19,10.32-9.81.3-.34,1.02-.15.89.37Z"/><path class="cls-5" d="m127.47,94.94c-.35,1.2-1.46,2.26-2.37,3.07-1.04.93-2.18,1.74-3.39,2.44-2.26,1.31-4.94,2.19-7.56,2.19-.16,0-.2-.27-.04-.32,2.45-.77,4.8-1.64,6.99-3,1.06-.66,2.06-1.41,2.97-2.25.47-.43.93-.89,1.39-1.33.47-.44.85-.93,1.39-1.27.35-.22.72.08.61.47Z"/><path class="cls-5" d="m145.34,94.98c-1.94,3.23-6.03,5.05-9.41,6.32-3.55,1.34-7.4,2.21-11.21,1.91-.68-.05-.58-.97,0-1.12,3.52-.89,7.04-1.72,10.4-3.15,1.6-.68,3.17-1.48,4.67-2.36,1.54-.9,3.19-1.9,4.89-2.46.56-.19.96.38.66.87Z"/><path class="cls-13" d="m167.48,110.22c-1.67-.42-3.34-.77-5.03-1.07-.84-.15-1.69-.31-2.53-.43-1-.15-1.99-.05-3-.19-3.55-.49-7.08-1.25-10.63-1.78-4.54-.68-9.11-1.17-13.67-1.64.14.12.28.24.42.35,1.44,1.28,2.68,2.71,3.77,4.31,1.02,1.51,2.09,3.22,2.25,5.07.02.26-.31.52-.54.31-1.25-1.17-2.13-2.68-3.21-4-1.16-1.42-2.47-2.75-3.83-3.97-1.07-.95-2.22-1.77-3.39-2.54-1.1-.11-2.2-.23-3.31-.35-1.59-.17-3.17-.37-4.75-.58.27.2.54.39.8.6,1.55,1.3,2.75,2.87,3.71,4.65.12.22-.21.38-.36.21-1.86-2.23-4.06-4.1-6.41-5.77-2.57-.36-5.15-.74-7.72-1.13,1.34.82,2.53,1.89,3.65,2.99,2.24,2.21,4.26,5.06,4.72,8.23.05.36-.41.67-.7.41-2.22-1.99-4.07-4.4-6.08-6.6-1.03-1.12-2.18-2.11-3.28-3.17-.86-.84-1.72-1.68-2.59-2.51-.66-.1-1.32-.2-1.99-.3-1.9-.28-3.79-.58-5.68-.9.66.55,1.3,1.14,1.9,1.77,2.45,2.54,4.28,5.98,4.97,9.44.14.71-.82.83-1.12.31-1.68-2.92-3.61-5.5-5.95-7.92-1.12-1.15-2.35-2.18-3.62-3.17-.61-.48-1.25-.91-1.9-1.34-.09-.06-.19-.12-.29-.19-3.14-.62-6.27-1.3-9.38-2.07-3.85-.95-7.67-2.03-11.43-3.31-1.88-.64-3.74-1.37-5.58-2.14-1.78-.74-3.61-1.47-5.02-2.82-.39-.37-.16-1,.4-.97,1.66.11,3.2.7,4.75,1.26,1.75.63,3.51,1.21,5.28,1.76,3.41,1.06,6.84,2.05,10.31,2.88,6.81,1.62,13.72,2.71,20.66,3.65,7.16.97,14.36,1.34,21.52,2.18,7.04.82,14.01,1.88,21.01,3.02,3.96.64,7.99,1.25,11.88,2.25,1.95.5,3.74,1.32,5.66,1.92,1.91.59,3.8,1.21,5.71,1.81.82.26.45,1.69-.4,1.48Z"/></g><g><path class="cls-5" d="m65.78,87.49s8.05-13.12,2.79-25.14c-4.66-10.63-15.84-21.48-18.37-23.86-.14-.13-.35.01-.29.19l15.87,48.81Z"/><path class="cls-16" d="m50.26,40.36c.23.72.52,1.42.86,2.09l.03.08c-.04.17-.09.34-.14.51.23.13.43.35.55.68l10.74,30.85,3.03,8.7c.32.93-.92,1.74-1.69,1.21-5.31-3.64-10.38-7.76-13.31-13.63-2.8-5.6-3.68-11.98-3.24-18.17.28-3.91,1.06-7.78,2.1-11.56.16-.57.61-.79,1.06-.77Z"/><path class="cls-16" d="m49.31,38.72c.24-.67,1.41-.31,1.2.38-2.28,7.81-3.9,15.92-2.21,24.03.71,3.43,2.02,6.78,3.91,9.73.92,1.44,1.98,2.79,3.18,4,1.39,1.39,2.96,2.53,4.56,3.64,1.75,1.22,3.51,2.49,4.77,4.24,1.05,1.46,1.86,3.45,1.26,5.23-.11.34-.55.16-.61-.11-.38-1.83-.95-3.38-2.16-4.83-1.29-1.56-3.04-2.68-4.69-3.81-3.04-2.09-5.62-4.59-7.59-7.72-3.98-6.34-5.21-13.9-4.59-21.27.39-4.59,1.42-9.18,2.96-13.52Z"/><path class="cls-5" d="m53.94,70.91c2.05-.02,4.13,1.08,5.81,2.14,1.81,1.14,3.47,2.51,4.64,4.33.1.16-.1.37-.25.24-1.54-1.32-3.1-2.68-4.84-3.73-.87-.52-1.78-.94-2.69-1.38-.9-.43-1.86-.76-2.73-1.26-.14-.08-.13-.33.06-.33Z"/><path class="cls-5" d="m49.29,63.87c2.66-.65,5.48.38,7.72,1.79,1.16.73,2.16,1.62,3.05,2.67.45.53.83,1.1,1.16,1.72.29.54.65,1.12.69,1.74,0,.1-.12.17-.2.1-.42-.36-.7-.89-1.05-1.32-.41-.5-.85-.99-1.31-1.45-.88-.89-1.9-1.68-2.96-2.33-2.19-1.34-4.61-1.83-7.06-2.42-.23-.06-.32-.44-.04-.51Z"/><path class="cls-5" d="m52.84,60.45c.64-.13,1.41.13,2,.36.68.26,1.34.59,1.96.98,1.16.73,2.22,1.76,2.86,2.98.04.08-.08.16-.14.1-.95-.95-1.93-1.83-3.09-2.52-.56-.33-1.16-.61-1.77-.84-.32-.11-.64-.22-.96-.32-.32-.11-.64-.17-.93-.34-.19-.11-.14-.35.07-.4Z"/><path class="cls-5" d="m48.52,52.14c1.97.12,3.81,1.58,5.22,2.84,1.49,1.33,2.82,2.9,3.61,4.75.14.33-.31.51-.52.27-1.27-1.42-2.51-2.85-3.99-4.07-.71-.58-1.46-1.12-2.23-1.6-.79-.5-1.66-1.02-2.33-1.67-.22-.22-.05-.54.24-.52Z"/><path class="cls-13" d="m50.23,38.15c.21.88.45,1.74.72,2.6.13.43.27.86.41,1.28.17.5.46.94.64,1.44.63,1.77,1.14,3.59,1.75,5.37.78,2.28,1.67,4.52,2.56,6.75.02-.09.04-.19.06-.28.25-.98.61-1.91,1.09-2.8.45-.84.99-1.75,1.81-2.28.12-.07.32.02.27.17-.24.86-.73,1.64-1.08,2.46-.38.88-.68,1.82-.92,2.75-.18.73-.29,1.46-.36,2.19.21.54.43,1.08.64,1.62.3.78.6,1.56.88,2.35.03-.17.05-.35.09-.52.23-1.04.66-1.98,1.26-2.85.07-.11.23,0,.18.12-.58,1.41-.92,2.88-1.13,4.38.46,1.28.91,2.57,1.35,3.86.06-.82.27-1.63.51-2.42.48-1.58,1.32-3.21,2.68-4.19.15-.11.41.03.36.23-.38,1.51-1.06,2.96-1.59,4.43-.27.75-.45,1.53-.68,2.29-.18.6-.36,1.21-.54,1.82.11.33.23.66.34,1,.33.95.65,1.9.96,2.86.1-.44.22-.88.36-1.31.59-1.76,1.74-3.44,3.18-4.6.3-.24.59.18.41.45-.95,1.49-1.68,3.01-2.24,4.69-.27.8-.45,1.62-.6,2.45-.07.4-.12.8-.16,1.21,0,.06-.01.12-.02.18.47,1.61.92,3.23,1.31,4.86.49,2.02.92,4.06,1.24,6.12.16,1.03.27,2.07.36,3.11.09,1.01.2,2.04-.09,3.02-.08.27-.43.32-.55.05-.35-.8-.45-1.66-.57-2.51-.13-.96-.29-1.92-.46-2.88-.34-1.84-.7-3.68-1.16-5.49-.9-3.56-2.07-7.04-3.31-10.49-1.28-3.56-2.86-7-4.21-10.54-1.33-3.47-2.53-6.97-3.7-10.5-.66-2-1.36-4.02-1.84-6.07-.24-1.03-.29-2.06-.48-3.1-.19-1.03-.36-2.06-.54-3.09-.08-.44.68-.62.79-.17Z"/></g><g><path class="cls-1" d="m67.82,105.23c-.2.45-.5.86-.94,1.13-.4.24-.88.38-1.37.46-.26.04-.52.08-.78.11-.92.11-1.87.16-2.81.22-2.59.17-5.21.23-7.84.26-1.28.01-2.57,0-3.86,0-.67,0-1.32,0-1.99-.01-.6,0-1.27.06-1.87-.13-1.09-.34-1.52-1.43-1.73-2.31-.26-1.04-.34-2.08-.3-3.1.07-2.06.59-4.08,1.23-5.99.24-.73.55-1.46,1.02-2.08.13-.18.28-.35.45-.51.68-.64,1.59-1.01,2.61-1.13,1.02-.12,2.09-.03,3.13.13,1.29.19,2.57.45,3.85.74,2.4.56,4.77,1.31,7.08,2.22.03,0,.04-.01.07-.02.45-.03.9.01,1.34.14,1.91.56,3.27,2.29,3.62,3.95.22,1.02.13,2.04-.07,3.01-.1.48-.23.95-.36,1.41-.15.51-.28,1.02-.49,1.5Z"/><path class="cls-9" d="m66.58,100.89c-.09.17-.37.13-.44-.03-.3-.7-.38-1.48-.22-2.22-1.15.79-2.29,1.58-3.44,2.36-.61.42-1.21.92-1.89,1.21-.53.23-1.16.31-1.64-.08-.08-.07-.14-.17-.09-.28.25-.6.58-1.16.99-1.66-.56.15-1.16.16-1.75.01-.15-.04-.21-.24-.12-.36.72-1.03,1.73-1.82,2.88-2.31-1.03,0-2.07-.03-3.1-.11-.69-.05-1.38-.08-2.06-.19-.46-.08-.95-.42-.77-.95.16-.5.73-.74,1.19-.86.61-.16,1.23-.27,1.86-.33,2.49-.27,5.04.14,7.25,1.32.04.02.06.05.07.08.68.26,1.35.51,2.03.76.11.04.18.15.18.26-.06,1.18-.38,2.31-.92,3.35Z"/><path class="cls-1" d="m65.34,97.52c-.13.05-.33.05-.42-.08-.21-.31-.45-.6-.7-.88-.32-.27-.63-.53-.95-.79-1.19-.99-2.41-1.94-3.73-2.77-3.03-1.91-6.37-3.34-9.85-4.19-3.47-.85-7.08-1.15-10.64-.81-.24.02-.48-.29-.24-.48.31-.24.63-.48.95-.72,2.62-1.94,5.4-3.67,8.29-5.17,1.37-.71,2.77-1.44,4.33-1.59,1.44-.15,2.9.07,4.28.47,2.43.71,4.65,2.09,6.42,3.89,1.77,1.8,3.11,4.04,3.8,6.48.59,2.12.93,5.57-1.56,6.65Z"/><path class="cls-9" d="m64.9,96.45c-.54-.24-1.07-.47-1.62-.69-1.19-.99-2.41-1.94-3.73-2.77-3.03-1.91-6.37-3.34-9.85-4.19-3.47-.85-7.08-1.15-10.64-.81-.24.02-.48-.29-.24-.48.31-.24.63-.48.95-.72,1.53-.35,3.08-.67,4.61-1.01,1.02-.23,2.05-.43,3.1-.43,1.08,0,2.15.25,3.17.58,2.11.66,4.23,1.4,6.25,2.3,3.53,1.59,6.94,4.02,8.41,7.74.1.24-.12.61-.42.48Z"/><path class="cls-1" d="m70.3,92.84c-.66,1.1-1.75,2.11-2.99,2.51-.05.08-.15.12-.25.08-.77.2-1.57.16-2.36-.23-.18-.09-.2-.37-.1-.52.12-.18.33-.19.51-.1.31.16.66.24,1.01.24-.13-.1-.26-.19-.39-.29-1.64-1.36-2.77-3.21-3.86-5.01-1.13-1.86-2.27-3.68-3.84-5.21-1.44-1.4-3.2-2.73-3.94-4.67-.43-1.12-.41-2.28-.22-3.46.17-1.08.33-2.33,1.03-3.22.71-.89,1.76-1.07,2.84-1,.51.03,1.02.1,1.54.08.51-.01,1-.16,1.47-.36.97-.42,1.93-1,3.03-.9,1.27.12,2.3,1,3.1,1.91,3.07,3.51,4.28,8.35,4.65,12.9.2,2.44.07,5.09-1.22,7.24Z"/><path class="cls-1" d="m87.54,87.02c-.34.94-1.14,1.64-1.96,2.16-.92.59-1.89,1.09-2.84,1.61-1.08.59-2.15,1.19-3.23,1.78-.98.55-1.97,1.09-2.95,1.63-.82.45-1.68.96-2.63,1.03-.44.03-.82-.07-1.24-.16-.25-.06-.65-.19-.85.01-.23.22-.62-.08-.5-.36.01-.03.04-.05.05-.08,0-.02-.01-.03,0-.05.04-.53.06-1.07.09-1.6.14-2.17.12-4.35-.04-6.51-.08-1.08-.21-2.16-.37-3.24-.16-1.03-.45-2.08-.37-3.13.03-.38.11-.73.24-1.06.55-1.47,1.96-2.5,3.36-3.18,1.83-.9,3.85-1.52,5.83-1.99,1.03-.25,2.05-.44,3.09-.59.51-.07,1.02-.15,1.53-.19.51-.04.99.08,1.27.55.25.42.27.95.34,1.43.07.58.16,1.16.23,1.73l.48,3.52c.12.86.23,1.73.35,2.6.04.31.09.62.13.92.04.23.07.47.1.71.12.83.19,1.68-.1,2.47Z"/><path class="cls-3" d="m87.54,87.02c-.34.94-1.14,1.64-1.96,2.16-.92.59-1.89,1.09-2.84,1.61-1.08.59-2.15,1.19-3.23,1.78-1.18.53-2.36,1.07-3.57,1.53-.25.09-.44-.26-.19-.39,1.26-.65,2.57-1.22,3.86-1.79,1.99-.89,4.01-1.75,5.78-3.03.45-.32.87-.66,1.27-1.04.21-.2.45-.4.6-.65.13-.24.12-.52.12-.78,0-.63,0-1.27,0-1.9,0-.52-.07-1.09.03-1.61.04.31.09.62.13.92.04.23.07.47.1.71.12.83.19,1.68-.1,2.47Z"/><path class="cls-1" d="m96.74,99.04c-.34.52-.78.98-1.18,1.45-.83,1-1.67,2.01-2.51,3.01-.33.4-.7.82-1.26.88-.58.07-1.23-.15-1.8-.26-1.3-.25-2.59-.5-3.89-.75-1.28-.24-2.56-.48-3.84-.73-1.13-.22-2.27-.47-3.32-.94-.51-.23-1-.53-1.43-.88-.44-.36-.81-.78-1.25-1.14-.9-.72-2.09-.89-3.15-1.26-.3-.1-.62-.24-.92-.41-.15.08-.36.05-.45-.14-.03-.08-.06-.15-.08-.24-.34-.3-.6-.68-.66-1.15-.1-.83.6-1.83,1.51-1.58.18-.19.39-.36.59-.51.24-.17.49-.3.77-.4.73-.29,1.54-.4,2.31-.48.2-.02.41-.04.61-.06.92-.1,1.83-.23,2.72-.53.96-.32,1.88-.77,2.75-1.27.1-.05.2-.11.3-.17,1.06-.61,2.13-1.37,3.26-1.92,0,0,0,0,.01,0,.39-.19.79-.36,1.21-.47.05-.02.11-.04.15-.05.47-.13.95-.2,1.45-.2.4,0,.8.04,1.18.12.63.12,1.23.33,1.8.61.31.15.61.33.89.52.61.41,1.17.9,1.65,1.44.72.81,1.29,1.76,1.76,2.74.46.98.87,2.04,1.09,3.1.13.59.05,1.15-.28,1.66Z"/><path class="cls-1" d="m87.44,103.51c-.39,1.02-.81,2.03-1.23,3.03l-1.24,3.07c-.21.52-.42,1.04-.63,1.56-.17.42-.37.81-.77,1.05-.79.49-1.74.22-2.49-.2-.41-.23-.8-.52-1.23-.71-.38-.17-.79-.29-1.21-.36-.83-.11-1.69-.03-2.46.3-.5.21-.95.55-1.42.81-.31.18-.63.32-.99.38-1.65.28-3.04-1.13-3.56-2.57-.2-.57-.36-1.16-.49-1.75,0-.01,0-.03,0-.04-.14-.68-.23-1.38-.3-2.08-.14-1.53-.14-3.08-.2-4.58-.04-1.01-.05-1.78.07-2.37.24-1.29,1.07-1.74,3.42-1.99,1.01-.1,2.02-.2,3.03-.22,1.04-.02,2.08.06,3.1.33,1.04.27,2.03.73,3.02,1.17,1,.45,2.01.89,3.02,1.34.48.21.96.41,1.43.64.39.19.79.41,1.06.77.55.72.39,1.62.09,2.41Z"/><path class="cls-3" d="m74.75,112.07c-.31.18-.63.32-.99.38-1.65.28-3.04-1.13-3.56-2.57-.2-.57-.36-1.16-.49-1.75,0-.01,0-.03,0-.04-.09-.6-.18-1.2-.26-1.8-.01-.09-.03-.19-.04-.28-.14-1.53-.14-3.08-.2-4.58-.04-1.01-.05-1.78.07-2.37.1.6.12,1.21.18,1.82.06.62.12,1.25.19,1.87.25,2.26.61,4.52,1,6.76.16.94.44,1.85,1.39,2.26.43.19.89.26,1.36.29.44.01.94-.11,1.36.02Z"/><path class="cls-9" d="m87.22,104.09c-.08-.06-.13-.16-.14-.29,0-1.06-.62-2.06-1.18-2.92-.12-.18-.24-.44-.43-.55-.22-.13-.54-.1-.79-.11-.58-.03-1.15-.07-1.73-.1-1.16-.07-2.28-.14-3.34-.65-1.07-.51-2.08-1.1-3.18-1.55-.94-.38-1.91-.64-2.88-.93-.16-.05-.32-.1-.48-.15-.38-.12-.27-.75.13-.7.94.11,1.89.38,2.81.71.43.16.86.34,1.27.51.58.25,1.14.52,1.7.81.55.29,1.1.6,1.7.78.57.18,1.17.21,1.77.25.52.03,1.03.06,1.55.09.12,0,.23.01.35.02.55.04,1.23-.01,1.7.34.29.23.51.57.71.91.08.14.16.27.23.4.31.54.57,1.09.71,1.68l-.46,1.44Z"/><path class="cls-9" d="m75.66,102c-1.68-.14-3.23-1.02-4.24-2.35-.06.38-.16.75-.32,1.11-.07.16-.26.21-.39.08-.29-.29-.51-.63-.67-1h0c-.08.24-.37.2-.44-.01-.22-.69-.35-1.4-.37-2.12-.13-.05-.22-.18-.18-.35.33-1.3,1.96-1.46,3.06-1.26,1.7.31,3.3,1.19,4.65,2.24.11.09.15.27.02.37-.36.28-.8.38-1.22.33l.21.29c.13.17-.02.47-.25.38-.61-.25-1.24-.41-1.88-.49.73.8,1.47,1.61,2.21,2.41.13.14.01.4-.19.39Z"/><path class="cls-3" d="m53.53,79.99c.35.06.7.12,1.04.18.72.13,1.43.29,2.14.49,1.19.35,2.36.83,3.38,1.54,1.03.71,1.85,1.65,2.45,2.75.62,1.15,1,2.42,1.41,3.65.21.63.44,1.27.72,1.87.14.31.3.61.48.9.17.28.4.51.56.8.09.16-.13.37-.29.25-.52-.41-.86-1.16-1.13-1.76-.3-.64-.54-1.31-.76-1.98-.42-1.23-.81-2.48-1.45-3.62-.61-1.1-1.48-2.01-2.55-2.69-1.06-.67-2.26-1.1-3.47-1.42-.62-.16-1.25-.29-1.88-.41-.62-.11-1.25-.18-1.86-.31-.11-.02-.15-.11-.14-.2l1.37-.07Z"/><path class="cls-9" d="m65.91,93.21c-.08-.34-.17-.68-.26-1.01-.18-.67-.37-1.34-.59-2.01-.43-1.35-.92-2.68-1.47-3.98-.27-.64-.56-1.28-.86-1.91-.29-.6-.56-1.24-.97-1.78-.43-.56-1.03-.89-1.67-1.18-.63-.29-1.27-.57-1.92-.83-1.34-.52-2.94-.99-4.38-.67-.31.07-.3.58.04.57.63-.01,1.26-.01,1.88.1.63.11,1.25.31,1.85.53.61.23,1.2.49,1.78.76.59.27,1.24.53,1.67,1.03.4.48.65,1.11.91,1.68.28.6.55,1.21.81,1.82.51,1.22.97,2.46,1.38,3.72.22.7.44,1.4.63,2.1.1.37.2.74.29,1.11.09.36.15.74.43,1.01.15.15.4.11.48-.1.12-.34.04-.65-.04-.99Z"/><path class="cls-9" d="m66.14,87.32c.11.38.21.77.32,1.15-.04,0-.09,0-.13,0-.07-.38-.14-.77-.2-1.15Zm4.65-6.53c-.09.87-.17,1.74-.22,2.62-.08,1.32-.15,2.64-.21,3.96-.06,1.29-.16,2.61-.7,3.8-.15.32-.61.41-.79.05-.04-.09-.08-.19-.12-.28-.26.32-.54.63-.83.92-.21.21-.55.1-.68-.13-.08-.15-.16-.29-.24-.44,0,.02,0,.04.01.05.1.33-.31.52-.56.38-.33-.18-.55-.46-.71-.78.15.38.31.76.49,1.13.11.22-.22.46-.37.25-.87-1.28-1.36-2.74-1.58-4.26-.04-.25.18-.48.44-.39.39.12.65.38.85.69-.08-.44-.16-.89-.22-1.33-.1-.74-.18-1.49-.23-2.24-.03-.38-.05-.77-.06-1.16-.01-.39-.08-.77-.09-1.16-.01-.53.75-.53.87-.07.65,2.58,1.32,5.15,2.08,7.7.13-.25.26-.51.38-.77.08-.18.22-.28.37-.3.03-.09.07-.17.1-.26.12-.32.46-.34.68-.19.07-.63.09-1.27.12-1.91.13-2.6.4-5.18.7-7.76l.53,1.89Z"/><path class="cls-9" d="m92.51,90.09s-.04,0-.06-.01c-.9-.24-1.83-.4-2.76-.47-.88-.07-1.79-.08-2.61.27-.77.33-1.42.85-2.11,1.32-.69.47-1.42.86-2.18,1.18-1.58.65-3.24,1.03-4.84,1.61-1.55.57-3.08,1.56-4.78,1.52-.47,0-.54-.78-.06-.83.97-.11,1.86-.43,2.75-.82.31-.14.62-.27.94-.39.58-.24,1.17-.46,1.77-.66,1.23-.39,2.49-.69,3.7-1.14.39-.14.78-.3,1.15-.49,1.26-.61,2.32-1.61,3.62-2.08.05-.02.11-.04.15-.05.47-.13.95-.2,1.45-.2.4,0,.8.04,1.18.12.63.12,1.23.33,1.8.61.31.15.61.33.89.52Z"/><path class="cls-9" d="m75.24,88.7c.69-1.51,1.45-2.99,2.33-4.4.23-.37-.33-.75-.56-.38-.95,1.52-1.87,3.06-2.8,4.59-.47.77-.93,1.53-1.39,2.3-.09.15-.69,1.28-1.04,1.73l.15-.66c.06-.27.24-.69.1-.96-.01-.03-.03-.05-.05-.07.09-.66.06-1.32-.11-1.97-.07-.24-.41-.28-.5-.03-.13.38-.26.75-.39,1.13-.08.23-.28.58-.17.83.16.39.64.06.43-.2h0c.04-.05.06-.15.08-.22.06-.15.12-.3.17-.45.01.32-.02.64-.08.95-.1.15-.11.33.06.44-.02.06-.03.12-.04.15-.04.16-.08.32-.11.48l-.22.91c-.03.12,0,.26.11.33.74.48,1.28-.66,1.58-1.14.19-.3.38-.61.57-.91,0,0,0,0,0,0-.25.62-.43,1.32-.09,1.94.23.43.92.09.69-.34-.29-.55.09-1.26.3-1.78.31-.77.63-1.53.98-2.28Z"/><path class="cls-17" d="m75.17,97.55c-.64.63-1.34,1.08-2.24,1.21-.77.11-1.54.05-2.31.06-.17,0-.35,0-.52.02.3.11.13.56-.18.48-.29-.07-.58-.15-.87-.22-.13.06-.26.14-.38.24-.34.28-.78-.17-.57-.47-.44-.11-.87-.21-1.31-.33-.51-.13-1.03-.26-1.54-.41-.42-.12-.83-.31-1.11-.67-.64-.85-1.12-3.02.07-3.61-.04-.33-.07-.67-.11-.99-.02-.2.07-.4.28-.43.25-.05.5-.06.76-.04.16-.41.38-.82.78-1.02.28-.14.59-.18.87-.09.22-.36.52-.64.91-.83.18-.09.4-.01.49.16.04.08.08.17.12.25.16-.36.39-.67.79-.8.41-.14.87-.05,1.16.23l.96-.71c.17-.12.48-.12.56.11.19.52.42,1.12.87,1.48.22.18.45.23.73.23.27,0,.53.01.77.16.42.26.57.81.47,1.28.36.08.67.32.8.71.1.29.06.58-.06.83.34.14.63.4.79.73.47.95-.37,1.8-.99,2.41Z"/><path class="cls-10" d="m72.58,95.03c-.27.22-.66.23-.94.02-.25-.19-.38-.5-.52-.77-.12-.22-.24-.53-.54-.43-.22.07-.4.26-.32.49.06.19-.1.41-.28.44-.76.14-1.51.03-2.19-.3-.54-.23-.99-.67-1.26-1.21-.12-.25.13-.5.38-.43.34.09.67.19,1.01.28.07-.41.09-.83.04-1.24-.03-.33.32-.52.56-.29.21.21.42.42.62.63.09-.47.17-.93.26-1.4.03-.18.16-.35.37-.33.64.05.98.51,1.14,1.06.06-.07.13-.14.2-.2.15-.13.37-.11.51.04.27.29.43.66.46,1.05.33.01.66.19.82.49.18.34.17.73.12,1.1-.05.36-.12.77-.42,1.01Z"/><path class="cls-15" d="m65.76,94.86c-.02-.07-.05-.13-.11-.17-.01-.01-.03-.02-.05-.03-.02-.01-.04-.03-.06-.04-.03-.03-.06-.07-.09-.11-.02-.04-.05-.08-.06-.12,0,0,0,0,0-.01-.03-.11-.13-.19-.24-.18-.05,0-.1.02-.14.05-.04.04-.08.1-.08.16,0,.08.01.15.03.22.03.09.07.18.13.25.05.06.11.11.17.16.04.03.08.05.13.07.08.03.17.04.24,0,.04-.03.08-.06.1-.1.02-.05.03-.1.02-.15Z"/><path class="cls-15" d="m66.62,95.27s0-.04.01-.06c0-.03,0-.06-.01-.09,0-.01,0-.02-.01-.03,0,0,0,0,0-.01,0,0,0-.02-.01-.03,0-.02-.02-.04-.02-.06,0,0,0-.02-.01-.03,0,0,0-.02-.01-.03-.01-.02-.02-.04-.03-.06-.01-.03-.03-.05-.06-.07-.02-.02-.05-.04-.08-.05-.03-.01-.06-.01-.09,0-.03,0-.06,0-.09.02-.02.01-.03.02-.05.03-.03.03-.05.06-.07.1,0,.02,0,.04-.01.06,0,.04,0,.08.02.12,0,.02.02.04.02.06,0,0,0,.02.01.03,0,0,.01.02.02.03,0,.02.02.03.03.05,0,0,.01.02.02.03,0,0,0,0,0,.01,0,0,0,0,0,0,.01.03.03.05.06.07.01.02.03.03.05.03,0,0,.02.01.03.01.03.01.06.01.09,0,.03,0,.06,0,.09-.02.02-.01.03-.02.05-.03.03-.03.05-.06.07-.1,0,0,0,0,0,0Z"/><path class="cls-15" d="m72.59,96.36s0-.05,0-.07c0-.03,0-.06,0-.09,0,0,0,0,0-.01,0,0,0-.01,0-.02,0-.01,0-.03,0-.04,0-.03-.02-.06-.03-.09-.02-.04-.05-.08-.09-.11-.02-.02-.05-.04-.08-.05-.04-.02-.09-.04-.14-.04-.03,0-.06,0-.09,0-.03,0-.06.02-.09.03-.04.02-.08.05-.11.09-.03.03-.06.07-.07.12-.01.05-.03.11-.03.16,0,.02,0,.05,0,.07,0,.05,0,.11.01.16,0,.01,0,.02,0,.03,0,.05.05.14.09.17.03.03.06.06.1.08.04.02.08.04.13.04.03,0,.06,0,.09,0,.06-.01.11-.04.15-.07.01,0,.02-.02.03-.04.01-.01.02-.02.03-.04.01-.02.02-.03.03-.05.01-.03.02-.05.03-.07.02-.05.02-.11.03-.16Z"/><path class="cls-15" d="m73.46,96.28s.01-.04.02-.06c.01-.04.02-.09.04-.13.01-.04.02-.07.01-.11,0-.04,0-.07-.03-.11-.02-.03-.04-.06-.07-.08-.03-.03-.06-.05-.1-.06-.03,0-.05,0-.08-.01-.05,0-.1,0-.14.03-.02.01-.04.03-.06.04-.04.03-.07.08-.08.12-.02.04-.03.08-.05.12l-.02.06s0,.02-.01.03c-.01.03-.02.07-.02.11,0,.02,0,.05,0,.07,0,.04.02.07.04.1.01.02.03.04.05.06.03.03.06.05.1.06.03,0,.05,0,.08.01.02,0,.05,0,.07,0,.04,0,.07-.02.1-.04.03-.02.06-.04.08-.08.02-.03.04-.06.05-.1,0-.01,0-.02,0-.03Z"/><path class="cls-15" d="m68.36,90.79s-.02-.07-.03-.1c-.03-.06-.08-.11-.13-.15.02.01.03.03.05.04-.03-.03-.06-.06-.09-.09-.02-.02-.03-.04-.05-.06,0-.01-.01-.02-.02-.03-.02-.05-.06-.1-.09-.14.02.02.03.05.05.07-.01-.02-.02-.04-.04-.06l-.04-.07s-.04-.04-.06-.05c-.02-.01-.05-.02-.07-.04-.04-.02-.08-.02-.12-.01-.03,0-.05,0-.08.02-.03,0-.05.02-.07.04-.02.01-.04.03-.06.05-.03.03-.05.06-.06.11-.06.14-.06.29-.02.43.02.07.05.15.09.21.03.05.06.09.1.13.04.04.08.08.13.11.05.03.1.05.15.06.05.01.1.02.16,0,.05,0,.1-.03.14-.06.05-.03.08-.06.11-.11.02-.03.03-.07.05-.1.02-.07.03-.14.01-.21Z"/><g><polygon class="cls-15" points="68.96 90.25 68.96 90.25 68.96 90.25 68.96 90.25"/><path class="cls-15" d="m69.03,90.43s0-.05-.02-.07c0,0,0,0,0-.01-.01-.03-.02-.06-.03-.09,0,0,0-.01,0-.02,0-.01-.01-.02-.02-.03,0,0,0-.02-.01-.03,0,0,0-.01,0-.02,0-.03,0-.06,0-.1-.01-.03-.02-.06-.03-.09-.02-.03-.04-.05-.05-.08-.03-.04-.07-.07-.12-.09-.03-.02-.06-.03-.09-.03-.03-.01-.06-.01-.1,0-.03,0-.06,0-.09.02-.05.01-.09.03-.12.07-.03.03-.06.07-.09.1,0,0,0,.01,0,.02-.02.04-.04.07-.05.11,0,.04-.02.1-.02.14,0,.05,0,.09.01.14.01.08.05.15.09.21.02.03.03.05.05.07,0,0,0,0,0,0,.03.02.05.05.08.07.03.02.06.04.1.05,0,0,.01,0,.02,0,.03,0,.06,0,.09,0,.02,0,.03,0,.05,0,0,0,.01,0,.02,0,.02,0,.03,0,.05,0,0,0,0,0,0,0,0,0,0,0,0,0,.01,0,.03,0,.04,0,.03,0,.06-.02.09-.03.03-.02.05-.03.08-.05.04-.03.06-.07.08-.11.02-.03.03-.06.03-.09.01-.03.01-.06,0-.09Z"/></g><path class="cls-15" d="m72.14,90.3s0-.1-.01-.14c0-.03-.01-.07-.02-.1-.02-.1-.06-.19-.1-.28-.01-.03-.03-.06-.05-.09-.03-.05-.06-.11-.1-.15-.02-.02-.05-.05-.07-.07,0,0-.01-.01-.02-.02,0,0,0,0,0,0-.03-.04-.06-.06-.11-.08-.03-.02-.06-.02-.09-.03-.1-.04-.22-.03-.3.04-.04.03-.06.08-.08.12-.02.05-.01.1,0,.14,0,.01,0,.03,0,.04,0,.03,0,.05.02.08,0,0,0,0,0,0,0,0,0,0,0,0,0,0,0,0,0,0,0,0,0,.01,0,.02.02.06.03.12.06.18,0,.02.02.04.03.07.02.06.04.13.06.19.01.04.02.08.03.12.02.07.04.12.08.17.02.04.06.08.1.11.04.03.09.05.14.05.06.01.08.02.15,0,.13-.03.25-.12.28-.25.01-.04.02-.09.02-.14Z"/><path class="cls-15" d="m73.13,91.43s-.02-.03-.03-.04c-.02-.02-.05-.04-.08-.05,0,0-.02,0-.03-.01,0-.02.01-.04.02-.06.03-.06.07-.12.09-.18.02-.06.03-.11.02-.17,0-.06-.01-.11-.04-.16-.02-.03-.04-.06-.06-.09-.04-.05-.08-.08-.14-.1-.03-.02-.07-.03-.11-.04-.06-.02-.11-.02-.17,0-.03.01-.07.02-.1.04-.07.03-.12.08-.17.15-.03.04-.05.1-.07.15,0,.02-.02.03-.02.05-.01.04-.02.07-.03.11-.02.11-.04.21-.04.32,0,.03,0,.07,0,.1,0,.05.03.1.06.14.02.03.04.06.07.07.04.04.08.06.13.08.04,0,.08.02.13.02.01,0,.02,0,.04,0,.06,0,.13,0,.18-.04.02-.01.03-.03.05-.05.02,0,.04.01.07.02.05.01.09.01.14,0,.04-.02.08-.06.09-.11.01-.05.01-.1,0-.14Z"/><path class="cls-15" d="m74.57,91.79s-.02-.07-.04-.1c-.02-.05-.05-.09-.1-.12-.04-.04-.08-.07-.14-.08-.04,0-.07-.01-.11-.02-.08,0-.15.01-.22.05-.11.05-.2.16-.23.29-.02.04-.04.07-.06.11-.05.09-.09.18-.13.27,0,.03-.01.05-.02.08,0,.04,0,.08.02.11.02.06.06.12.11.15.05.03.1.05.15.05.08,0,.15-.03.21-.07.06-.04.12-.08.18-.13.04-.03.08-.07.11-.1,0,0,0,0,0,0,.07-.03.12-.08.16-.14.02-.03.03-.07.05-.1.02-.08.03-.15.02-.24Z"/><path class="cls-15" d="m73.58,96.71s.03-.07.03-.11c0-.02,0-.05,0-.07,0-.04-.02-.07-.04-.1-.01-.02-.03-.04-.05-.05-.03-.03-.06-.05-.09-.06-.02,0-.05,0-.07-.01-.05,0-.09,0-.14.03-.02,0-.05.02-.07.03-.02.01-.04.03-.06.04-.02.01-.04.03-.06.04-.03.03-.05.05-.07.08,0,.01-.02.02-.02.03-.02.04-.05.09-.07.14,0,.03-.01.05-.02.08,0,0,0,0,0,0,0,.02,0,.04,0,.07,0,.04,0,.05.02.09,0,.03.02.05.03.07.01.02.03.04.05.06.02.02.04.03.06.04.01,0,.02.01.04.02,0,0,.07.01.08.01.03,0,.05,0,.08,0,.02,0,.05-.02.07-.02.02-.01.04-.03.06-.04.02-.02.03-.04.05-.06,0,0,0,0,0,0,.02-.02.02-.04.03-.07,0-.01.02-.02.02-.04,0,.01-.01.03-.02.04.02-.03.04-.07.06-.1.02-.03.04-.07.06-.09-.01.01-.02.03-.03.04.03-.02.05-.05.06-.08Z"/><g><path class="cls-15" d="m74.6,94.44s.04-.02.05-.04c-.01,0-.03,0-.04.02,0,0-.01.01-.02.02Z"/><path class="cls-15" d="m75.1,94.93s.01-.05.01-.08c0-.03,0-.05,0-.08,0-.01,0-.03,0-.04,0,0,0-.01,0-.02,0-.04,0-.07-.02-.1h0s0,0,0-.02c0-.01-.01-.02-.01-.03,0,0,0-.02,0-.02,0,0,0,0,0,.01-.01-.03-.02-.07-.05-.1-.04-.04-.08-.07-.13-.09-.05-.02-.1-.02-.15,0-.03,0-.06.03-.09.05-.09.04-.15.14-.2.22-.01.02-.02.05-.04.07-.02.04-.05.08-.06.12,0,.01,0,.03-.01.04-.02.05-.02.1-.01.15,0,.05.01.09.03.14.02.04.05.08.09.11.03.04.08.06.12.08.09.03.2.03.28-.02.03-.02.05-.04.08-.05.05-.04.09-.1.11-.16,0-.01.01-.03.02-.04.02-.04.02-.09.03-.13Z"/><path class="cls-15" d="m74.66,94.41s0,0,0,0c0,0,0,0,0,0,0,0,0,0-.01,0Z"/></g><path class="cls-2" d="m87.64,84.55c-.72-1.21-1.13-2.58-1.56-3.92-.29-.92-.59-1.83-.87-2.75-.25-.79-.44-1.62-.79-2.38-.17-.35-.4-.67-.78-.79-.41-.14-.86-.03-1.26.06-.88.21-1.77.43-2.65.65-3.03.74-6.38,1.34-8.71,3.59-.02.03-.05.04-.09.04.55-1.47,1.96-2.5,3.36-3.18,1.83-.9,3.85-1.52,5.83-1.99,1.03-.25,2.05-.44,3.09-.59.51-.07,1.02-.15,1.53-.19.51-.04.99.08,1.27.55.25.42.27.95.34,1.43.07.58.16,1.16.23,1.73l.48,3.52c.16,1.17.32,2.35.47,3.52.04.23.07.47.1.71Z"/><path class="cls-2" d="m64.72,106.93c-.92.11-1.87.16-2.81.22-2.59.17-5.21.23-7.84.26-1.28.01-2.57,0-3.86,0-.67,0-1.32,0-1.99-.01-.6,0-1.27.06-1.87-.13-1.09-.34-1.52-1.43-1.73-2.31-.26-1.04-.34-2.08-.3-3.1.07-2.06.59-4.08,1.23-5.99.24-.73.55-1.46,1.02-2.08-.54,1.45-.46,3.25-.4,4.65.06,1.24.2,2.47.41,3.68.19,1.03.41,2.13,1.03,3,1.45,2.04,4.07.96,6.09.73,1.18-.14,2.4-.06,3.54.27.57.17,1.11.47,1.72.48.58,0,1.07-.33,1.61-.5,1.43-.46,2.87.08,4.14.84Z"/></g></svg>