<?xml version="1.0" encoding="UTF-8"?><svg id="Layer_1" xmlns="http://www.w3.org/2000/svg" viewBox="0 0 131.77 30.44"><defs><style>.cls-1{fill:#ed6353;}.cls-2{fill:#b33d3a;}.cls-3{fill:#1c2739;}.cls-4{fill:#6e8a64;}</style></defs><g><path class="cls-4" d="m97.86.55c-1.96,1.37-4.1,2.46-6.02,3.9-.93.69-1.83,1.43-2.69,2.21-.37.33-.73.74-1.1,1.12,1.37.24,2.73.45,4.1.65.55-.77,1.68-1.38,2.36-1.87.86-.62,1.75-1.2,2.67-1.75,1.86-1.11,4.11-2.56,6.31-2.77.21-.02.41.24.21.4-1.62,1.36-3.78,2.16-5.56,3.31-1.02.66-2,1.37-2.96,2.1-.32.25-.63.55-.97.84,1.51.19,3.02.35,4.53.47.5-.82,2-1.53,2.66-1.99.96-.69,1.94-1.34,2.94-1.97,2.12-1.33,4.37-2.45,6.66-3.45.33-.14.62.3.29.49-2.09,1.24-4.12,2.57-6.12,3.96-1.03.71-2.04,1.44-3.04,2.2-.35.27-.71.63-1.1.93.94.06,1.89.1,2.84.14.84.03,1.68.05,2.52.06,2.7-2.37,6.37-4.61,9.7-5.85.27-.1.47.33.22.47-2.7,1.49-5.29,3.32-7.6,5.39,1.41,0,2.82-.04,4.23-.09.41-.52,1.01-.82,1.58-1.2.85-.56,1.69-1.13,2.55-1.68,1.62-1.04,3.25-2.02,4.99-2.84.15-.07.31.15.19.27-1.39,1.32-2.89,2.48-4.43,3.61-.8.58-1.61,1.15-2.42,1.72.01,0,.02,0,.03,0,1.21-.08,2.42-.17,3.63-.28,2.26-1.86,5.35-4.31,8.05-5.29.22-.08.43.19.23.35-1.94,1.65-4.03,3.12-6.01,4.72,2.06-.23,8.19-1.22,10.06-1.25.38,0,.54.55.15.68-1.7.56-7.31,1.37-9.7,1.7,2.17.93,4.38,1.75,6.51,2.76.23.11.09.42-.13.4-2.9-.24-6.44-1.62-9.12-2.82-1.18.13-2.37.24-3.56.33-.05,0-.1,0-.15,0,0,0,.01,0,.02,0,.92.44,1.83.88,2.74,1.33,1.71.86,3.38,1.76,4.97,2.83.14.09.01.34-.14.29-1.85-.53-3.62-1.22-5.39-1.98-.94-.4-1.86-.82-2.79-1.24-.7-.32-1.43-.53-1.93-1.1-1.34.07-2.69.11-4.03.13,2.45,1.7,5.11,3.16,7.85,4.29.27.11.12.56-.16.49-3.52-.87-7.77-2.68-10.76-4.77-.66,0-1.32-.02-1.97-.04-.68-.02-1.35-.05-2.03-.08.15.11.29.21.43.3,1.05.67,2.13,1.32,3.21,1.95,2.1,1.22,4.24,2.38,6.42,3.44.34.17.09.63-.25.51-2.37-.81-4.7-1.74-6.92-2.89-1.05-.54-2.08-1.12-3.09-1.72-.6-.36-2.08-1.05-2.88-1.78-1.25-.09-2.49-.2-3.74-.32.15.13.31.25.46.37.98.71,1.98,1.39,3.02,2.01,1.82,1.1,4,1.83,5.66,3.14.2.16.01.42-.2.41-2.2-.14-4.5-1.52-6.39-2.57-.93-.52-1.84-1.07-2.72-1.67-.65-.44-1.88-1.22-2.57-2.01-1.39-.18-2.77-.38-4.15-.62.23.22.47.44.7.63.9.73,1.83,1.42,2.79,2.07,1.99,1.34,4.18,2.33,6.2,3.6.27.17.16.61-.18.55-2.41-.44-4.72-1.72-6.77-3.02-.97-.62-1.91-1.29-2.82-2.01-.83-.66-1.84-1.35-2.41-2.28-1.69-.33-3.37-.7-5.03-1.13-.9-.23-.65-1.64.27-1.43,1.83.4,3.67.78,5.5,1.12.55-.75,1.34-1.36,2.01-1.95.87-.76,1.77-1.48,2.72-2.15,1.98-1.4,4.22-2.79,6.61-3.35.34-.08.47.36.21.54Z"/><path class="cls-4" d="m33.91.55c1.96,1.37,4.1,2.46,6.02,3.9.93.69,1.83,1.43,2.69,2.21.37.33.73.74,1.1,1.12-1.37.24-2.73.45-4.1.65-.55-.77-1.68-1.38-2.36-1.87-.86-.62-1.75-1.2-2.67-1.75-1.86-1.11-4.11-2.56-6.31-2.77-.21-.02-.41.24-.21.4,1.62,1.36,3.78,2.16,5.56,3.31,1.02.66,2,1.37,2.96,2.1.32.25.63.55.97.84-1.51.19-3.02.35-4.53.47-.5-.82-2-1.53-2.66-1.99-.96-.69-1.94-1.34-2.94-1.97-2.12-1.33-4.37-2.45-6.66-3.45-.33-.14-.62.3-.29.49,2.09,1.24,4.12,2.57,6.12,3.96,1.03.71,2.04,1.44,3.04,2.2.35.27.71.63,1.1.93-.94.06-1.89.1-2.84.14-.84.03-1.68.05-2.52.06-2.7-2.37-6.37-4.61-9.7-5.85-.27-.1-.47.33-.22.47,2.7,1.49,5.29,3.32,7.6,5.39-1.41,0-2.82-.04-4.23-.09-.41-.52-1.01-.82-1.58-1.2-.85-.56-1.69-1.13-2.55-1.68-1.62-1.04-3.25-2.02-4.99-2.84-.15-.07-.31.15-.19.27,1.39,1.32,2.89,2.48,4.43,3.61.8.58,1.61,1.15,2.42,1.72-.01,0-.02,0-.03,0-1.21-.08-2.42-.17-3.63-.28-2.26-1.86-5.35-4.31-8.05-5.29-.22-.08-.43.19-.23.35,1.94,1.65,4.03,3.12,6.01,4.72-2.06-.23-8.19-1.22-10.06-1.25-.38,0-.54.55-.15.68,1.7.56,7.31,1.37,9.7,1.7-2.17.93-4.38,1.75-6.51,2.76-.23.11-.09.42.13.4,2.9-.24,6.44-1.62,9.12-2.82,1.18.13,2.37.24,3.56.33.05,0,.1,0,.15,0,0,0-.01,0-.02,0-.92.44-1.83.88-2.74,1.33-1.71.86-3.38,1.76-4.97,2.83-.14.09-.01.34.14.29,1.85-.53,3.62-1.22,5.39-1.98.94-.4,1.86-.82,2.79-1.24.7-.32,1.43-.53,1.93-1.1,1.34.07,2.69.11,4.03.13-2.45,1.7-5.11,3.16-7.85,4.29-.27.11-.12.56.16.49,3.52-.87,7.77-2.68,10.76-4.77.66,0,1.32-.02,1.97-.04.68-.02,1.35-.05,2.03-.08-.15.11-.29.21-.43.3-1.05.67-2.13,1.32-3.21,1.95-2.1,1.22-4.24,2.38-6.42,3.44-.34.17-.09.63.25.51,2.37-.81,4.7-1.74,6.92-2.89,1.05-.54,2.08-1.12,3.09-1.72.6-.36,2.08-1.05,2.88-1.78,1.25-.09,2.49-.2,3.74-.32-.15.13-.31.25-.46.37-.98.71-1.98,1.39-3.02,2.01-1.82,1.1-4,1.83-5.66,3.14-.2.16-.01.42.2.41,2.2-.14,4.5-1.52,6.39-2.57.93-.52,1.84-1.07,2.72-1.67.65-.44,1.88-1.22,2.57-2.01,1.39-.18,2.77-.38,4.15-.62-.23.22-.47.44-.7.63-.9.73-1.83,1.42-2.79,2.07-1.99,1.34-4.18,2.33-6.2,3.6-.27.17-.16.61.18.55,2.41-.44,4.72-1.72,6.77-3.02.97-.62,1.91-1.29,2.82-2.01.83-.66,1.84-1.35,2.41-2.28,1.69-.33,3.37-.7,5.03-1.13.9-.23.65-1.64-.27-1.43-1.83.4-3.67.78-5.5,1.12-.55-.75-1.34-1.36-2.01-1.95-.87-.76-1.77-1.48-2.72-2.15-1.98-1.4-4.22-2.79-6.61-3.35-.34-.08-.47.36-.21.54Z"/></g><g><path class="cls-1" d="m76,25.69c4.55-5.55,3.74-13.74-1.81-18.29-5.55-4.55-13.74-3.74-18.29,1.81-4.55,5.55-3.74,13.74,1.81,18.29,5.55,4.55,13.74,3.74,18.29-1.81Z"/><path class="cls-3" d="m60.92,27.55c1.43,1.08,3.63,1.54,4.89,1.03,1.27-.51,1.13-1.8-.3-2.88-1.43-1.08-3.63-1.54-4.89-1.03-1.27.51-1.13,1.8.3,2.88Z"/><path class="cls-2" d="m68.49,12.67c7.04,2.7,8.75,7.41,9,10.72,2.76-5.33,1.52-12.05-3.31-16.01-5.55-4.55-13.74-3.74-18.29,1.81-1.21,1.48-2.03,3.14-2.49,4.87,2.94-2.05,8.04-4.1,15.09-1.4Z"/></g></svg>